<?xml version="1.0" encoding="UTF-8"?>
<svg width="472px" height="36px" viewBox="0 0 472 36" version="1.1" xmlns="http://www.w3.org/2000/svg" xmlns:xlink="http://www.w3.org/1999/xlink">
    <!-- Generator: Sketch 49.1 (51147) - http://www.bohemiancoding.com/sketch -->
    <title>installment_logo@2x</title>
    <desc>Created with Sketch.</desc>
    <defs></defs>
    <g id="Page-1" stroke="none" stroke-width="1" fill="none" fill-rule="evenodd">
        <g id="t" transform="translate(-85.000000, -376.000000)">
            <g id="installment_logo" transform="translate(85.000000, 376.000000)">
                <path d="M0.48,0.96 L9.28,0.96 C9.04,2.6 8.96,3.96 8.96,6.88 L8.96,28.32 C8.96,31.08 9.04,32.56 9.28,34.24 L0.48,34.24 C0.72,32.68 0.8,31 0.8,28.32 L0.8,6.88 C0.8,3.88 0.72,2.72 0.48,0.96 Z M14.24,0.96 L23.04,0.96 C22.8,2.6 22.72,3.96 22.72,6.88 L22.72,28.32 C22.72,31.08 22.8,32.56 23.04,34.24 L14.24,34.24 C14.48,32.68 14.56,31 14.56,28.32 L14.56,6.88 C14.56,3.88 14.48,2.72 14.24,0.96 Z" id="II" fill="#0433FF"></path>
                <path d="M333.08,10.96 L324.84,12.56 C324.08,8.92 321.96,7.12 318.52,7.12 C313.64,7.12 310.8,10.96 310.8,17.56 C310.8,24.08 313.76,28.04 318.72,28.04 C320.92,28.04 322.8,27.12 323.96,25.52 C324.64,24.56 324.92,23.76 325.16,22.08 L333.48,23.32 C332.72,26.72 331.84,28.68 330.16,30.64 C327.68,33.48 323.8,35 318.96,35 C314.08,35 309.96,33.48 307.12,30.6 C304.16,27.6 302.48,22.92 302.48,17.56 C302.48,12.12 304.16,7.52 307.32,4.4 C310.08,1.72 314.12,0.24 318.8,0.24 C323.96,0.24 328,2 330.6,5.48 C331.88,7.12 332.56,8.6 333.08,10.96 Z M356.84,9.84 L354.92,17.04 C353.08,16.48 352.08,16.28 350.84,16.28 C348.8,16.28 347.24,17 346.08,18.44 C345.32,19.4 345.04,20.24 344.88,22 L344.88,28.24 C344.88,30.8 344.96,32.32 345.2,34.24 L336.92,34.24 C337.16,32.24 337.24,30.8 337.24,28.2 L337.24,15.88 C337.24,12.96 337.16,11.56 336.92,9.84 L344.88,9.84 L344.88,13 C346.84,10.44 349.24,9.36 352.88,9.36 C354.16,9.36 354.96,9.44 356.84,9.84 Z M383.56,24.28 L365.56,24.28 C365.96,27.52 367.84,29.24 371,29.24 C372.6,29.24 374,28.72 375.04,27.76 C375.64,27.2 375.92,26.76 376.24,25.72 L383.2,27.68 C382.28,29.76 381.68,30.68 380.56,31.8 C378.28,34.04 375.08,35.2 371.12,35.2 C367.2,35.2 364.12,34.08 361.84,31.8 C359.48,29.4 358.2,26 358.2,22.04 C358.2,14.12 363.28,8.88 370.92,8.88 C377.16,8.88 381.52,12.28 382.92,18.24 C383.24,19.52 383.4,21.2 383.52,23.48 C383.52,23.64 383.52,23.88 383.56,24.28 Z M365.68,18.76 L375.96,18.76 C375.4,16.2 373.68,14.84 370.92,14.84 C368.08,14.84 366.36,16.12 365.68,18.76 Z M405.44,34.24 L405.44,32.96 C405.44,32.72 405.44,32.44 405.48,32.08 C402.8,34.24 400.76,34.96 397.4,34.96 C390.12,34.96 385.72,30.08 385.72,22 C385.72,17.84 386.92,14.52 389.16,12.24 C391.2,10.2 394,9.12 397.28,9.12 C400.52,9.12 402.84,9.96 405.48,12.08 C405.44,11.48 405.44,11.12 405.44,10.56 L405.44,7.24 C405.44,4.44 405.36,2.72 405.12,0.96 L413.32,0.96 C413.08,2.64 413,4.56 413,7.24 L413,27.96 C413,30.64 413.08,32.28 413.32,34.24 L405.44,34.24 Z M399.16,15.24 C395.68,15.24 393.48,17.84 393.48,22.04 C393.48,24.32 394.12,26.16 395.32,27.32 C396.28,28.28 397.72,28.84 399.2,28.84 C402.76,28.84 405.36,25.88 405.36,21.92 C405.36,18.04 402.8,15.24 399.16,15.24 Z M417.64,0.96 L425.76,0.96 L425.76,6.96 L417.64,6.96 L417.64,0.96 Z M417.52,9.84 L425.88,9.84 C425.64,11.48 425.56,13.08 425.56,15.88 L425.56,28.2 C425.56,30.36 425.68,32.52 425.88,34.24 L417.52,34.24 C417.76,32.28 417.84,30.76 417.84,28.2 L417.84,15.88 C417.84,13.28 417.76,11.64 417.52,9.84 Z M433.28,9.84 L433.28,9 C433.28,7 433.2,5.4 432.96,3.52 L441.12,3.52 C440.92,5.16 440.8,7.08 440.8,9 L440.8,9.84 L442.24,9.84 C444,9.84 444.92,9.8 446.16,9.64 L446.16,16.28 C444.96,16.12 443.92,16.04 442.48,16.04 L440.8,16.04 L440.8,26.28 C440.8,27.4 441,27.96 441.52,28.32 C441.96,28.6 442.6,28.76 443.36,28.76 C444.4,28.76 445.16,28.56 446.16,28.04 L446.76,34.12 C444.96,34.68 443.4,34.92 441.24,34.92 C438.52,34.92 436.64,34.48 435.36,33.52 C433.84,32.36 433.28,31 433.28,28.28 L433.28,16.04 L431.76,16.04 C430.48,16.04 429.44,16.12 428.28,16.28 L428.28,9.6 C429.44,9.76 430.44,9.84 431.84,9.84 L433.28,9.84 Z M448.36,26.96 L456.28,26.08 C456.68,28.16 458.04,29.08 460.72,29.08 C463.12,29.08 464.48,28.4 464.48,27.16 C464.48,26.56 464.16,26.04 463.6,25.72 C463.04,25.4 462.52,25.24 460.32,24.8 C457.28,24.2 455.72,23.8 454.4,23.36 C452.48,22.64 451.16,21.72 450.4,20.52 C449.76,19.44 449.4,18.08 449.4,16.72 C449.4,11.92 453.44,9 460.12,9 C463.92,9 466.76,9.84 468.64,11.56 C469.96,12.72 470.6,13.88 471.24,16.12 L463.52,16.96 C463.32,15.32 462.32,14.6 460.16,14.6 C458.08,14.6 456.8,15.28 456.8,16.32 C456.8,17.4 457.64,17.8 461.6,18.68 C465.52,19.52 466.76,19.88 468.16,20.6 C470.76,21.88 472,23.84 472,26.72 C472,28.84 471.28,30.76 469.96,32.04 C468.04,33.96 464.76,34.96 460.48,34.96 C455.44,34.96 451.88,33.6 449.96,30.96 C449.16,29.84 448.76,28.88 448.36,26.96 Z" id="Credits" fill="#0433FF"></path>
                <path d="M28.48,0.96 L37.28,0.96 C37.04,2.6 36.96,3.96 36.96,6.88 L36.96,28.32 C36.96,31.08 37.04,32.56 37.28,34.24 L28.48,34.24 C28.72,32.68 28.8,31 28.8,28.32 L28.8,6.88 C28.8,3.88 28.72,2.72 28.48,0.96 Z M50.16,34.24 L41.88,34.24 C42.12,32.36 42.2,30.68 42.2,28.2 L42.2,15.88 C42.2,13.12 42.12,11.44 41.88,9.84 L49.84,9.84 L49.84,11.52 C49.84,11.76 49.8,12.36 49.8,12.64 C52.32,10.24 54.76,9.24 58.04,9.24 C60.8,9.24 63,10 64.48,11.48 C66.08,13.08 66.76,15.04 66.76,18.2 L66.76,28.24 C66.76,30.56 66.88,32.56 67.08,34.24 L58.76,34.24 C59,32.32 59.08,30.64 59.08,28.2 L59.08,20 C59.08,18.4 58.92,17.72 58.44,17.04 C57.92,16.32 57,15.92 55.8,15.92 C53.56,15.92 51.56,17.32 49.84,20.12 L49.84,28.2 C49.84,30.48 49.92,32.16 50.16,34.24 Z M70.32,26.96 L78.24,26.08 C78.64,28.16 80,29.08 82.68,29.08 C85.08,29.08 86.44,28.4 86.44,27.16 C86.44,26.56 86.12,26.04 85.56,25.72 C85,25.4 84.48,25.24 82.28,24.8 C79.24,24.2 77.68,23.8 76.36,23.36 C74.44,22.64 73.12,21.72 72.36,20.52 C71.72,19.44 71.36,18.08 71.36,16.72 C71.36,11.92 75.4,9 82.08,9 C85.88,9 88.72,9.84 90.6,11.56 C91.92,12.72 92.56,13.88 93.2,16.12 L85.48,16.96 C85.28,15.32 84.28,14.6 82.12,14.6 C80.04,14.6 78.76,15.28 78.76,16.32 C78.76,17.4 79.6,17.8 83.56,18.68 C87.48,19.52 88.72,19.88 90.12,20.6 C92.72,21.88 93.96,23.84 93.96,26.72 C93.96,28.84 93.24,30.76 91.92,32.04 C90,33.96 86.72,34.96 82.44,34.96 C77.4,34.96 73.84,33.6 71.92,30.96 C71.12,29.84 70.72,28.88 70.32,26.96 Z M100.56,9.84 L100.56,9 C100.56,7 100.48,5.4 100.24,3.52 L108.4,3.52 C108.2,5.16 108.08,7.08 108.08,9 L108.08,9.84 L109.52,9.84 C111.28,9.84 112.2,9.8 113.44,9.64 L113.44,16.28 C112.24,16.12 111.2,16.04 109.76,16.04 L108.08,16.04 L108.08,26.28 C108.08,27.4 108.28,27.96 108.8,28.32 C109.24,28.6 109.88,28.76 110.64,28.76 C111.68,28.76 112.44,28.56 113.44,28.04 L114.04,34.12 C112.24,34.68 110.68,34.92 108.52,34.92 C105.8,34.92 103.92,34.48 102.64,33.52 C101.12,32.36 100.56,31 100.56,28.28 L100.56,16.04 L99.04,16.04 C97.76,16.04 96.72,16.12 95.56,16.28 L95.56,9.6 C96.72,9.76 97.72,9.84 99.12,9.84 L100.56,9.84 Z M132.6,18.44 L132.6,17.52 C132.6,15.6 131.44,14.72 128.8,14.72 C126.24,14.72 124.88,15.56 124.28,17.52 L116.64,16.28 C117.44,13.92 118.32,12.64 120,11.44 C122.16,9.92 125.12,9.16 129,9.16 C131.96,9.16 134.84,9.72 136.4,10.56 C138.96,11.96 140.08,14.16 140.08,17.76 L140.08,28.56 C140.08,31 140.16,32.44 140.36,34.24 L132.6,34.24 L132.6,32.4 C130.36,34.12 128.12,34.8 124.84,34.8 C121.8,34.8 119.52,34.08 117.92,32.6 C116.48,31.28 115.72,29.36 115.72,27.16 C115.72,24.64 116.72,22.64 118.64,21.32 C120.68,19.88 123.36,19.04 126.96,18.72 C128.52,18.56 129.72,18.52 132.6,18.44 Z M132.6,24.68 L132.6,23.56 C129.04,23.64 127.32,23.84 125.68,24.36 C124.24,24.84 123.36,25.84 123.36,27 C123.36,28.44 124.56,29.28 126.64,29.28 C128.28,29.28 130.08,28.68 131.16,27.76 C132.08,26.96 132.6,25.88 132.6,24.68 Z M144.6,0.96 L152.96,0.96 C152.72,2.64 152.64,4.28 152.64,7 L152.64,28.2 C152.64,30.6 152.72,32.12 152.96,34.24 L144.6,34.24 C144.84,32.44 144.92,31.08 144.92,28.2 L144.92,7 C144.92,4.16 144.84,2.48 144.6,0.96 Z M157.16,0.96 L165.52,0.96 C165.28,2.64 165.2,4.28 165.2,7 L165.2,28.2 C165.2,30.6 165.28,32.12 165.52,34.24 L157.16,34.24 C157.4,32.44 157.48,31.08 157.48,28.2 L157.48,7 C157.48,4.16 157.4,2.48 157.16,0.96 Z M177.96,34.24 L169.72,34.24 C169.96,32.4 170.04,30.72 170.04,28.2 L170.04,15.88 C170.04,12.84 169.96,11.4 169.72,9.84 L177.64,9.84 L177.64,11.52 C177.64,11.68 177.64,11.68 177.6,12.08 L177.6,12.48 C179.64,10.24 182.08,9.2 185.24,9.2 C187.32,9.2 189.04,9.68 190.36,10.64 C191.08,11.16 191.48,11.64 192,12.64 C194.48,10.2 196.92,9.16 200.4,9.16 C206.12,9.16 209.04,12.28 209.04,18.32 L209.04,28.24 C209.04,30.72 209.12,32.36 209.36,34.24 L201.04,34.24 C201.28,32.36 201.36,30.92 201.36,28.2 L201.36,19.96 C201.36,16.96 200.48,15.8 198.2,15.8 C196.16,15.8 194.32,17.4 193.32,20.08 L193.32,28.24 C193.32,30.64 193.4,32.32 193.64,34.24 L185.32,34.24 C185.56,32.44 185.64,30.76 185.64,28.2 L185.64,19.96 C185.64,18.28 185.48,17.52 184.96,16.84 C184.52,16.2 183.72,15.84 182.76,15.84 C180.6,15.84 178.76,17.4 177.64,20.12 L177.64,28.2 C177.64,30.72 177.72,32.28 177.96,34.24 Z M237.84,24.28 L219.84,24.28 C220.24,27.52 222.12,29.24 225.28,29.24 C226.88,29.24 228.28,28.72 229.32,27.76 C229.92,27.2 230.2,26.76 230.52,25.72 L237.48,27.68 C236.56,29.76 235.96,30.68 234.84,31.8 C232.56,34.04 229.36,35.2 225.4,35.2 C221.48,35.2 218.4,34.08 216.12,31.8 C213.76,29.4 212.48,26 212.48,22.04 C212.48,14.12 217.56,8.88 225.2,8.88 C231.44,8.88 235.8,12.28 237.2,18.24 C237.52,19.52 237.68,21.2 237.8,23.48 C237.8,23.64 237.8,23.88 237.84,24.28 Z M219.96,18.76 L230.24,18.76 C229.68,16.2 227.96,14.84 225.2,14.84 C222.36,14.84 220.64,16.12 219.96,18.76 Z M249.32,34.24 L241.04,34.24 C241.28,32.36 241.36,30.68 241.36,28.2 L241.36,15.88 C241.36,13.12 241.28,11.44 241.04,9.84 L249,9.84 L249,11.52 C249,11.76 248.96,12.36 248.96,12.64 C251.48,10.24 253.92,9.24 257.2,9.24 C259.96,9.24 262.16,10 263.64,11.48 C265.24,13.08 265.92,15.04 265.92,18.2 L265.92,28.24 C265.92,30.56 266.04,32.56 266.24,34.24 L257.92,34.24 C258.16,32.32 258.24,30.64 258.24,28.2 L258.24,20 C258.24,18.4 258.08,17.72 257.6,17.04 C257.08,16.32 256.16,15.92 254.96,15.92 C252.72,15.92 250.72,17.32 249,20.12 L249,28.2 C249,30.48 249.08,32.16 249.32,34.24 Z M273.56,9.84 L273.56,9 C273.56,7 273.48,5.4 273.24,3.52 L281.4,3.52 C281.2,5.16 281.08,7.08 281.08,9 L281.08,9.84 L282.52,9.84 C284.28,9.84 285.2,9.8 286.44,9.64 L286.44,16.28 C285.24,16.12 284.2,16.04 282.76,16.04 L281.08,16.04 L281.08,26.28 C281.08,27.4 281.28,27.96 281.8,28.32 C282.24,28.6 282.88,28.76 283.64,28.76 C284.68,28.76 285.44,28.56 286.44,28.04 L287.04,34.12 C285.24,34.68 283.68,34.92 281.52,34.92 C278.8,34.92 276.92,34.48 275.64,33.52 C274.12,32.36 273.56,31 273.56,28.28 L273.56,16.04 L272.04,16.04 C270.76,16.04 269.72,16.12 268.56,16.28 L268.56,9.6 C269.72,9.76 270.72,9.84 272.12,9.84 L273.56,9.84 Z" id="Installment" fill="#000000"></path>
            </g>
        </g>
    </g>
</svg>