<?xml version="1.0" encoding="UTF-8" standalone="no"?>
<svg
   xmlns:dc="http://purl.org/dc/elements/1.1/"
   xmlns:cc="http://creativecommons.org/ns#"
   xmlns:rdf="http://www.w3.org/1999/02/22-rdf-syntax-ns#"
   xmlns:svg="http://www.w3.org/2000/svg"
   xmlns="http://www.w3.org/2000/svg"
   id="svg54"
   version="1.1"
   viewBox="0 0 561.7 73.47">
  <metadata
     id="metadata58">
    <rdf:RDF>
      <cc:Work
         rdf:about="">
        <dc:format>image/svg+xml</dc:format>
        <dc:type
           rdf:resource="http://purl.org/dc/dcmitype/StillImage" />
        <dc:title>personal_logo_horizontal</dc:title>
      </cc:Work>
    </rdf:RDF>
  </metadata>
  <defs
     id="defs4">
    <style
       id="style2">.cls-1{fill:#084c8d;}.cls-2{fill:#5cbb16;}</style>
  </defs>
  <title
     id="title6">personal_logo_horizontal</title>
  <g
     data-name="Layer 2"
     id="Layer_2">
    <g
       data-name="Layer 1"
       id="Layer_1-2">
      <path
         style="fill:#ffffff"
         d="m 0,57.44 v -33 A 6.37,6.37 0 0 1 2.91,19.72 L 34.39,0.51 c 1.61,-1 2.92,-0.5 2.92,1.11 V 32.31 A 6.36,6.36 0 0 1 34.39,37 L 7.54,53.38 C -2,59.73 2.91,61.6 2.91,61.6 A 2.91,2.91 0 0 1 0,58.7 Z M 39.52,23.26 h 10.55 a 3,3 0 0 1 3,3 v 32.4 a 3,3 0 0 1 -3,3 H 7.6 c -5.43,0 -2.65,-3.09 0.29,-5.26 1.58,-1.17 5.67,-3.5 5.67,-3.5 L 44,52 16.27,51 24.9,45.75 47.48,44.75 28,43.82 35.89,39 a 6.41,6.41 0 0 0 0.76,-0.55 L 50.4,37.57 38.15,36.79 a 6.84,6.84 0 0 0 1.35,-3.77 z m 503.57,25.96 c 0.11,6.46 4.23,9.11 9,9.11 A 17.26,17.26 0 0 0 559.36,57 l 0.81,3.42 A 21.27,21.27 0 0 1 551.44,62 c -8.08,0 -12.91,-5.32 -12.91,-13.24 0,-7.92 4.67,-14.16 12.31,-14.16 8.57,0 10.85,7.54 10.85,12.37 a 18.14,18.14 0 0 1 -0.16,2.22 z m 14,-3.42 c 0.05,-3 -1.25,-7.76 -6.62,-7.76 -4.83,0 -6.94,4.45 -7.32,7.76 z M 537.34,60.5 A 17.59,17.59 0 0 1 529.8,62 c -7.92,0 -13.07,-5.37 -13.07,-13.4 0,-8.03 5.53,-13.94 14.1,-13.94 a 16,16 0 0 1 6.62,1.34 l -1.08,3.69 a 11.07,11.07 0 0 0 -5.53,-1.25 c -6,0 -9.28,4.45 -9.28,9.93 0,6.08 3.91,9.82 9.11,9.82 a 13.56,13.56 0 0 0 5.86,-1.3 z M 513.42,27.85 a 3,3 0 0 1 -5.91,0 2.91,2.91 0 0 1 3,-3 2.83,2.83 0 0 1 2.91,3 z M 508.1,61.48 V 35.23 h 4.77 V 61.48 Z M 486,35.23 491.18,50 a 67.59,67.59 0 0 1 2.12,6.73 h 0.16 c 0.6,-2.17 1.36,-4.34 2.22,-6.73 l 5.1,-14.75 h 5 l -10.32,26.23 h -4.56 l -10,-26.25 z m -18.75,8.19 c 0,-3.09 -0.05,-5.75 -0.22,-8.19 h 4.18 l 0.16,5.15 h 0.22 c 1.19,-3.53 4.07,-5.75 7.27,-5.75 a 5.18,5.18 0 0 1 1.36,0.16 v 4.5 a 7.15,7.15 0 0 0 -1.63,-0.16 c -3.36,0 -5.75,2.55 -6.4,6.13 a 13.44,13.44 0 0 0 -0.22,2.22 v 14 h -4.72 z m -22.35,5.8 c 0.11,6.46 4.23,9.11 9,9.11 A 17.26,17.26 0 0 0 461.18,57 l 0.82,3.4 a 21.27,21.27 0 0 1 -8.74,1.6 c -8.08,0 -12.91,-5.32 -12.91,-13.24 0,-7.92 4.65,-14.13 12.31,-14.13 8.57,0 10.85,7.54 10.85,12.37 a 18.14,18.14 0 0 1 -0.16,2.22 z m 14,-3.42 c 0.05,-3 -1.25,-7.76 -6.62,-7.76 -4.83,0 -6.94,4.45 -7.32,7.76 z m -42.04,9.93 a 16.73,16.73 0 0 0 8.46,2.39 c 4.83,0 7.65,-2.55 7.65,-6.24 0,-3.42 -2,-5.37 -6.89,-7.27 -6,-2.12 -9.66,-5.21 -9.66,-10.36 0,-5.7 4.72,-9.93 11.83,-9.93 a 16.61,16.61 0 0 1 8.08,1.79 L 435,30 a 14.55,14.55 0 0 0 -6.94,-1.74 c -5,0 -6.89,3 -6.89,5.48 0,3.42 2.22,5.1 7.27,7.05 6.18,2.39 9.33,5.37 9.33,10.74 C 437.8,57.14 433.62,62 425,62 c -3.53,0 -7.38,-1 -9.33,-2.33 z m -29.73,-20.67 4.77,14.16 c 0.54,1.63 1.08,3.63 1.46,5.15 h 0.16 c 0.43,-1.52 0.92,-3.47 1.41,-5.21 l 4.12,-14.1 h 7.16 l -6.62,18 c -3.63,9.87 -6.08,14.27 -9.22,17 a 13.42,13.42 0 0 1 -7,3.42 l -1.52,-5.64 a 11.43,11.43 0 0 0 3.93,-1.84 11.64,11.64 0 0 0 3.63,-4.18 2.68,2.68 0 0 0 0.43,-1.19 2.83,2.83 0 0 0 -0.38,-1.3 L 379.8,35.08 Z M 362,50.14 c 0.16,4.77 3.91,6.83 8.14,6.83 a 19.86,19.86 0 0 0 7.32,-1.19 l 1,4.61 a 24.77,24.77 0 0 1 -9.22,1.68 c -8.57,0 -13.62,-5.32 -13.62,-13.4 0,-7.32 4.45,-14.21 12.91,-14.21 8.63,0 11.39,7.05 11.39,12.86 a 16.43,16.43 0 0 1 -0.22,2.82 z m 11.61,-4.67 c 0.05,-2.44 -1,-6.46 -5.48,-6.46 -4.12,0 -5.86,3.74 -6.13,6.46 z m -45.17,-2.54 c 0,-3 -0.05,-5.59 -0.22,-7.87 h 5.86 l 0.33,4 h 0.16 A 9.52,9.52 0 0 1 343,34.47 c 4.61,0 9.38,3 9.38,11.34 v 15.67 h -6.67 V 46.56 c 0,-3.8 -1.41,-6.67 -5,-6.67 a 5.6,5.6 0 0 0 -5.21,3.91 6.78,6.78 0 0 0 -0.27,2.17 V 61.48 H 328.5 Z M 325.13,48 c 0,9.71 -6.83,14 -13.56,14 -7.49,0 -13.24,-5.15 -13.24,-13.62 0,-8.68 5.7,-14 13.67,-14 7.97,0 13.13,5.62 13.13,13.62 z m -19.91,0.27 c 0,5.1 2.5,9 6.56,9 3.8,0 6.46,-3.74 6.46,-9.06 0,-4.12 -1.84,-8.84 -6.4,-8.84 -4.72,-0.02 -6.62,4.54 -6.62,8.93 z m -17.04,-1.71 c -0.22,-4.72 -0.49,-10.42 -0.43,-15.41 h -0.16 c -1.19,4.5 -2.71,9.44 -4.34,14 L 277.93,61 h -5.15 L 267.9,45.42 c -1.41,-4.67 -2.71,-9.66 -3.69,-14.27 h -0.11 c -0.16,4.83 -0.38,10.63 -0.65,15.62 l -0.81,14.7 h -6.24 l 2.44,-36.56 h 8.79 l 4.77,14.7 c 1.3,4.29 2.44,8.63 3.36,12.69 h 0.16 c 1,-4 2.22,-8.46 3.63,-12.75 l 5,-14.65 h 8.68 l 2.12,36.56 h -6.51 z M 236.22,23 h 6.73 v 38.48 h -6.73 z m -4.89,32.13 a 42.33,42.33 0 0 0 0.38,6.35 h -6 l -0.43,-2.93 h -0.16 a 9.81,9.81 0 0 1 -7.81,3.53 c -5.32,0 -8.3,-3.85 -8.3,-7.87 0,-6.67 5.91,-10 15.68,-10 V 43.8 c 0,-1.74 -0.71,-4.61 -5.37,-4.61 a 14,14 0 0 0 -7.11,2 l -1.3,-4.34 a 19,19 0 0 1 9.55,-2.33 c 8.46,0 10.9,5.37 10.9,11.12 z m -6.51,-6.56 c -4.72,-0.11 -9.22,0.92 -9.22,4.94 a 3.5,3.5 0 0 0 3.8,3.8 5.41,5.41 0 0 0 5.21,-3.63 4.79,4.79 0 0 0 0.22,-1.46 z M 182,42.93 c 0,-3 -0.05,-5.59 -0.22,-7.87 h 5.86 l 0.33,4 h 0.16 a 9.52,9.52 0 0 1 8.41,-4.56 c 4.61,0 9.38,3 9.38,11.34 v 15.64 h -6.67 V 46.56 c 0,-3.8 -1.41,-6.67 -5,-6.67 A 5.6,5.6 0 0 0 189,43.8 6.78,6.78 0 0 0 188.7,46 V 61.48 H 182 Z M 178.66,48 c 0,9.71 -6.83,14 -13.56,14 -7.49,0 -13.24,-5.15 -13.24,-13.62 0,-8.68 5.7,-14 13.67,-14 7.97,0 13.13,5.62 13.13,13.62 z m -19.91,0.27 c 0,5.1 2.5,9 6.56,9 3.8,0 6.46,-3.74 6.46,-9.06 0,-4.12 -1.84,-8.84 -6.4,-8.84 -4.72,-0.02 -6.62,4.54 -6.62,8.93 z m -25.98,7.08 a 14.88,14.88 0 0 0 6.78,1.9 c 2.93,0 4.23,-1.19 4.23,-2.93 0,-1.74 -1.08,-2.71 -4.34,-3.85 -5.15,-1.79 -7.32,-4.61 -7.27,-7.7 0,-4.67 3.85,-8.3 10,-8.3 a 15.51,15.51 0 0 1 7,1.57 l -1.3,4.72 a 11.87,11.87 0 0 0 -5.59,-1.52 c -2.39,0 -3.69,1.14 -3.69,2.77 0,1.63 1.25,2.5 4.61,3.69 4.77,1.74 7,4.18 7.05,8.08 0,4.77 -3.74,8.3 -10.74,8.3 a 17,17 0 0 1 -8,-1.9 z M 116,43.58 c 0,-3.58 -0.05,-6.13 -0.22,-8.52 h 5.8 l 0.22,5 h 0.2 a 7.88,7.88 0 0 1 7.21,-5.64 7,7 0 0 1 1.57,0.16 v 6.29 a 9.27,9.27 0 0 0 -2,-0.22 5.88,5.88 0 0 0 -6,5 11.37,11.37 0 0 0 -0.22,2.06 V 61.48 H 116 Z M 94.85,50.14 C 95,54.92 98.76,57 103,57 a 19.86,19.86 0 0 0 7.32,-1.19 l 1,4.61 a 24.77,24.77 0 0 1 -9.22,1.68 c -8.57,0 -13.62,-5.32 -13.62,-13.4 0,-7.32 4.45,-14.21 12.91,-14.21 8.63,0 11.39,7.05 11.39,12.86 a 16.43,16.43 0 0 1 -0.22,2.82 z m 11.61,-4.67 c 0.05,-2.44 -1,-6.46 -5.48,-6.46 -4.12,0 -5.86,3.74 -6.13,6.46 z M 63.6,25.41 a 57.82,57.82 0 0 1 10.2,-0.76 c 4.88,0 8.46,1 10.79,3 A 10.33,10.33 0 0 1 88.17,35.73 11.08,11.08 0 0 1 85,44 c -2.66,2.66 -6.83,3.91 -11.55,3.91 A 18.8,18.8 0 0 1 70.2,47.69 v 13.79 h -6.6 z m 6.62,17 a 13.47,13.47 0 0 0 3.25,0.27 c 5,0 8,-2.44 8,-6.73 0,-4.07 -2.82,-6.24 -7.43,-6.24 a 18.4,18.4 0 0 0 -3.85,0.33 z"
         id="path50" />
    </g>
  </g>
</svg>
