<?xml version="1.0" encoding="UTF-8" standalone="no"?>
<svg
   xmlns:dc="http://purl.org/dc/elements/1.1/"
   xmlns:cc="http://creativecommons.org/ns#"
   xmlns:rdf="http://www.w3.org/1999/02/22-rdf-syntax-ns#"
   xmlns:svg="http://www.w3.org/2000/svg"
   xmlns="http://www.w3.org/2000/svg"
   id="svg54"
   version="1.1"
   viewBox="0 0 179.34 286.22">
  <metadata
     id="metadata58">
    <rdf:RDF>
      <cc:Work
         rdf:about="">
        <dc:format>image/svg+xml</dc:format>
        <dc:type
           rdf:resource="http://purl.org/dc/dcmitype/StillImage" />
        <dc:title>personal_money_vertical</dc:title>
      </cc:Work>
    </rdf:RDF>
  </metadata>
  <defs
     id="defs4">
    <style
       id="style2">.cls-1{fill:#084c8d;}.cls-2{fill:#5cbb16;}</style>
  </defs>
  <title
     id="title6">personal_money_vertical</title>
  <g
     data-name="Layer 2"
     id="Layer_2">
    <g
       data-name="Layer 1"
       id="Layer_1-2">
      <path
         style="fill:#ffffff"
         d="M 26.37,136.68 V 58.05 c 0,-3.83 3.1,-8.85 6.93,-11.22 L 108.21,1.22 C 112,-1.15 115.15,0 115.15,3.85 v 73 c 0,3.83 -3.11,8.85 -6.94,11.22 L 44.3,127 c -22.65,15.1 -11,19.57 -11,19.57 a 6.92,6.92 0 0 1 -6.93,-6.92 z M 120.4,55.35 h 25.12 a 7.08,7.08 0 0 1 7.08,7.08 v 77.09 a 7.08,7.08 0 0 1 -7.08,7.09 H 44.45 c -12.93,0 -6.3,-7.35 0.69,-12.52 3.75,-2.78 13.48,-8.33 13.48,-8.33 l 72.4,-2 -65.93,-2.46 20.53,-12.5 53.73,-2.44 -46.28,-2.09 18.72,-11.41 a 15.2,15.2 0 0 0 1.82,-1.31 l 32.73,-2.08 -29.14,-1.85 a 16.28,16.28 0 0 0 3.22,-9 z m 23.73,218.06 c 0.11,6.46 4.23,9.11 9,9.11 a 17.26,17.26 0 0 0 7.27,-1.36 l 0.81,3.42 a 21.26,21.26 0 0 1 -8.73,1.63 c -8.08,0 -12.91,-5.32 -12.91,-13.24 0,-7.92 4.67,-14.16 12.31,-14.16 8.57,0 10.85,7.54 10.85,12.37 a 18.15,18.15 0 0 1 -0.16,2.22 z m 14,-3.42 c 0.05,-3 -1.25,-7.76 -6.62,-7.76 -4.83,0 -6.94,4.45 -7.32,7.76 z m -19.75,14.71 a 17.6,17.6 0 0 1 -7.54,1.52 c -7.92,0 -13.07,-5.37 -13.07,-13.4 0,-8.03 5.53,-13.94 14.1,-13.94 a 16,16 0 0 1 6.62,1.36 l -1.08,3.69 a 11.07,11.07 0 0 0 -5.53,-1.25 c -6,0 -9.28,4.45 -9.28,9.93 0,6.08 3.91,9.82 9.11,9.82 a 13.57,13.57 0 0 0 5.86,-1.3 z M 114.46,252 a 3,3 0 0 1 -5.91,0 2.91,2.91 0 0 1 3,-3 2.83,2.83 0 0 1 2.91,3 z m -5.32,33.63 v -26.21 h 4.77 v 26.25 z m -22.07,-26.21 5.15,14.75 a 67.59,67.59 0 0 1 2.12,6.73 h 0.16 c 0.6,-2.17 1.36,-4.34 2.22,-6.73 l 5.1,-14.75 h 5 L 96.5,285.67 H 91.95 L 82,259.42 Z m -18.77,8.19 c 0,-3.09 -0.05,-5.75 -0.22,-8.19 h 4.18 l 0.16,5.15 h 0.22 c 1.19,-3.53 4.07,-5.75 7.27,-5.75 a 5.22,5.22 0 0 1 1.36,0.16 v 4.5 a 7.18,7.18 0 0 0 -1.63,-0.16 c -3.36,0 -5.75,2.55 -6.4,6.13 a 13.44,13.44 0 0 0 -0.22,2.22 v 14 H 68.3 Z m -22.35,5.8 c 0.11,6.46 4.23,9.11 9,9.11 a 17.26,17.26 0 0 0 7.27,-1.36 l 0.81,3.42 a 21.26,21.26 0 0 1 -8.73,1.63 c -8.08,0 -12.91,-5.32 -12.91,-13.24 0,-7.92 4.67,-14.16 12.31,-14.16 8.57,0 10.85,7.54 10.85,12.37 a 18.15,18.15 0 0 1 -0.16,2.22 z m 14,-3.42 c 0.05,-3 -1.25,-7.76 -6.62,-7.76 -4.83,0 -6.94,4.45 -7.32,7.76 z m -42.05,9.93 a 16.73,16.73 0 0 0 8.46,2.39 c 4.83,0 7.65,-2.55 7.65,-6.24 0,-3.42 -2,-5.37 -6.89,-7.27 -6,-2.12 -9.66,-5.21 -9.66,-10.36 0,-5.7 4.72,-9.93 11.83,-9.93 a 16.6,16.6 0 0 1 8.08,1.79 l -1.3,3.85 a 14.56,14.56 0 0 0 -6.94,-1.74 c -5,0 -6.89,3 -6.89,5.48 0,3.42 2.22,5.1 7.27,7.05 6.18,2.39 9.33,5.37 9.33,10.74 0,5.64 -4.18,10.52 -12.8,10.52 -3.53,0 -7.38,-1 -9.33,-2.33 z m 128.81,-65.66 4.77,14.16 c 0.54,1.63 1.08,3.63 1.46,5.15 h 0.16 c 0.43,-1.52 0.92,-3.47 1.41,-5.21 l 4.12,-14.1 h 7.16 l -6.62,18 c -3.63,9.87 -6.08,14.27 -9.22,17 a 13.43,13.43 0 0 1 -7,3.42 l -1.5,-5.68 a 11.41,11.41 0 0 0 3.91,-1.84 11.65,11.65 0 0 0 3.64,-4.16 2.68,2.68 0 0 0 0.43,-1.19 2.83,2.83 0 0 0 -0.38,-1.3 l -9.66,-24.25 z m -25.12,15.08 c 0.16,4.77 3.91,6.83 8.14,6.83 a 19.87,19.87 0 0 0 7.32,-1.19 l 1,4.61 a 24.76,24.76 0 0 1 -9.22,1.68 c -8.57,0 -13.62,-5.32 -13.62,-13.4 0,-7.32 4.45,-14.21 12.91,-14.21 8.63,0 11.39,7.05 11.39,12.86 a 16.42,16.42 0 0 1 -0.22,2.82 z m 11.61,-4.67 c 0.05,-2.44 -1,-6.46 -5.48,-6.46 -4.12,0 -5.86,3.74 -6.13,6.46 z M 88,222.12 c 0,-3 -0.05,-5.59 -0.22,-7.87 h 5.86 l 0.33,4 h 0.16 a 9.52,9.52 0 0 1 8.41,-4.56 c 4.61,0 9.38,3 9.38,11.34 v 15.68 h -6.67 v -14.95 c 0,-3.8 -1.41,-6.67 -5,-6.67 A 5.6,5.6 0 0 0 95,223 a 6.78,6.78 0 0 0 -0.27,2.17 v 15.51 H 88 Z m -3.3,5.1 c 0,9.71 -6.83,14 -13.56,14 -7.49,0 -13.24,-5.15 -13.24,-13.62 0,-8.68 5.7,-14 13.67,-14 7.97,0 13.13,5.59 13.13,13.62 z m -19.91,0.27 c 0,5.1 2.5,9 6.56,9 3.8,0 6.46,-3.74 6.46,-9.06 0,-4.12 -1.84,-8.84 -6.4,-8.84 -4.71,-0.05 -6.61,4.51 -6.61,8.9 z m -17.03,-1.73 c -0.22,-4.72 -0.49,-10.42 -0.43,-15.41 h -0.16 c -1.19,4.5 -2.71,9.44 -4.34,14 l -5.32,15.84 H 32.36 L 27.48,224.57 C 26.07,219.9 24.77,214.91 23.79,210.3 H 23.68 C 23.52,215.18 23.3,221 23,226 l -0.81,14.7 H 16 l 2.44,-36.56 h 8.76 l 4.8,14.67 c 1.3,4.29 2.44,8.63 3.36,12.69 h 0.16 c 1,-4 2.22,-8.46 3.63,-12.75 l 5,-14.65 h 8.68 L 55,240.67 h -6.53 z m 124.85,-68.6 h 6.73 v 38.51 h -6.73 z m -4.88,32.17 a 42.35,42.35 0 0 0 0.38,6.35 h -6 l -0.43,-2.93 h -0.16 a 9.81,9.81 0 0 1 -7.81,3.53 c -5.32,0 -8.3,-3.85 -8.3,-7.87 0,-6.67 5.91,-10 15.68,-10 V 178 c 0,-1.74 -0.71,-4.61 -5.37,-4.61 a 14,14 0 0 0 -7.11,2 l -1.3,-4.34 a 19,19 0 0 1 9.55,-2.33 c 8.46,0 10.9,5.37 10.9,11.12 z m -6.51,-6.56 c -4.72,-0.11 -9.22,0.92 -9.22,4.94 a 3.5,3.5 0 0 0 3.8,3.8 5.4,5.4 0 0 0 5.21,-3.63 4.78,4.78 0 0 0 0.22,-1.46 z m -42.85,-5.65 c 0,-3 -0.05,-5.59 -0.22,-7.87 H 124 l 0.33,4 h 0.16 a 9.52,9.52 0 0 1 8.41,-4.56 c 4.61,0 9.38,3 9.38,11.34 v 15.68 h -6.67 v -14.95 c 0,-3.8 -1.41,-6.67 -5,-6.67 a 5.6,5.6 0 0 0 -5.21,3.91 6.78,6.78 0 0 0 -0.27,2.17 v 15.51 h -6.73 z m -3.31,5.1 c 0,9.71 -6.83,14 -13.56,14 -7.49,0 -13.24,-5.15 -13.24,-13.62 0,-8.68 5.7,-14 13.67,-14 7.97,0 13.13,5.59 13.13,13.62 z m -19.91,0.27 c 0,5.1 2.5,9 6.56,9 3.8,0 6.46,-3.74 6.46,-9.06 0,-4.12 -1.84,-8.84 -6.4,-8.84 -4.77,-0.05 -6.62,4.51 -6.62,8.9 z m -25.99,7.05 a 14.87,14.87 0 0 0 6.78,1.9 c 2.93,0 4.23,-1.19 4.23,-2.93 0,-1.74 -1.08,-2.71 -4.34,-3.85 -5.15,-1.79 -7.32,-4.61 -7.27,-7.7 0,-4.67 3.85,-8.3 10,-8.3 a 15.51,15.51 0 0 1 7,1.57 L 84.24,175 a 11.87,11.87 0 0 0 -5.59,-1.52 c -2.39,0 -3.69,1.14 -3.69,2.77 0,1.63 1.25,2.5 4.61,3.69 4.77,1.74 7,4.18 7.05,8.08 0,4.77 -3.74,8.3 -10.74,8.3 a 17,17 0 0 1 -8,-1.9 z M 52.35,177.77 c 0,-3.58 -0.05,-6.13 -0.22,-8.52 h 5.8 l 0.22,5 h 0.22 a 7.88,7.88 0 0 1 7.21,-5.64 7,7 0 0 1 1.57,0.16 v 6.29 a 9.27,9.27 0 0 0 -2,-0.22 5.88,5.88 0 0 0 -6,5 A 11.37,11.37 0 0 0 59,182 v 13.67 h -6.65 z m -21.1,6.57 c 0.16,4.77 3.91,6.83 8.14,6.83 A 19.87,19.87 0 0 0 46.71,190 l 1,4.61 a 24.76,24.76 0 0 1 -9.22,1.68 c -8.57,0 -13.62,-5.32 -13.62,-13.4 0,-7.32 4.45,-14.21 12.91,-14.21 8.63,0 11.39,7.05 11.39,12.86 a 16.42,16.42 0 0 1 -0.22,2.82 z m 11.61,-4.67 c 0.05,-2.44 -1,-6.46 -5.48,-6.46 -4.12,0 -5.86,3.74 -6.13,6.46 z M 0,159.6 a 57.77,57.77 0 0 1 10.2,-0.76 c 4.88,0 8.46,1 10.79,3 a 10.33,10.33 0 0 1 3.58,8.08 11.08,11.08 0 0 1 -3.15,8.3 c -2.66,2.66 -6.83,3.91 -11.55,3.91 a 18.75,18.75 0 0 1 -3.25,-0.22 v 13.78 H 0 Z m 6.62,17 a 13.47,13.47 0 0 0 3.25,0.27 c 5,0 8,-2.44 8,-6.73 0,-4.07 -2.82,-6.24 -7.43,-6.24 a 18.39,18.39 0 0 0 -3.85,0.33 z"
         id="path50" />
    </g>
  </g>
</svg>
