<?xml version="1.0" standalone="no"?><!DOCTYPE svg PUBLIC "-//W3C//DTD SVG 1.1//EN" "http://www.w3.org/Graphics/SVG/1.1/DTD/svg11.dtd"><svg class="icon" height="512" viewBox="0 0 1024 1024" version="1.1" xmlns="http://www.w3.org/2000/svg"><path d="M763.7 442.6l-85.8-12.3-150.3 150.2-84.7 34.6 34.6-84.7 150.2-150.2-12.3-85.8L811.8 98l18.5 129.7L960 246.3 763.7 442.6z m-82.9 103.6c1.9 11.3 3.5 22.7 3.5 34.5 0 114.3-92.6 206.9-206.9 206.9-114.3 0-206.9-92.6-206.9-206.9 0-114.3 92.6-206.9 206.9-206.9 11.8 0 23.2 1.6 34.5 3.5v70.4c-11.1-2.9-22.5-4.9-34.5-4.9-76.2 0-137.9 61.8-137.9 137.9 0 76.2 61.8 137.9 137.9 137.9 76.2 0 138-61.8 138-137.9 0-12-2-23.4-4.9-34.5h70.3zM167 580.7c0 171.4 139 310.4 310.4 310.4 171.4 0 310.4-139 310.4-310.4 0-23.7-2.9-46.8-8-69h70.4c4.1 22.4 6.6 45.4 6.6 69 0 209.5-169.8 379.4-379.4 379.4C267.9 960 98 790.2 98 580.7c0-209.5 169.8-379.4 379.4-379.4 23.6 0 46.6 2.4 69 6.6v70.4c-22.2-5-45.2-8-69-8-171.5 0-310.4 138.9-310.4 310.4z" /></svg>