<?xml version="1.0" encoding="UTF-8" standalone="no"?>
<svg
   xmlns:dc="http://purl.org/dc/elements/1.1/"
   xmlns:cc="http://creativecommons.org/ns#"
   xmlns:rdf="http://www.w3.org/1999/02/22-rdf-syntax-ns#"
   xmlns:svg="http://www.w3.org/2000/svg"
   xmlns="http://www.w3.org/2000/svg"
   xml:space="preserve"
   viewBox="0 0 232.07882 532.15294"
   height="532.15295"
   width="232.07883"
   y="0px"
   x="0px"
   id="Capa_1"
   version="1.1"><metadata
   id="metadata45"><rdf:RDF><cc:Work
       rdf:about=""><dc:format>image/svg+xml</dc:format><dc:type
         rdf:resource="http://purl.org/dc/dcmitype/StillImage" /><dc:title></dc:title></cc:Work></rdf:RDF></metadata><defs
   id="defs43" />
<g
   transform="translate(-76.43975,-5.0370557e-5)"
   id="g8">
	<g
   id="g6">
		<path
   id="path2"
   d="m 161.02432,510.96 c -8.758,13.709 -23.586,21.193 -38.721,21.193 -8.458,0 -17.014,-2.338 -24.669999,-7.228 -21.358,-13.647 -27.619,-42.032 -13.966,-63.391 L 208.54632,266.074 83.667321,70.614 c -13.647,-21.365 -7.393,-49.744 13.966,-63.391 21.353999,-13.642 49.743999,-7.393 63.391999,13.966 l 140.673,220.173 c 9.627,15.067 9.627,34.357 0,49.425 z" />
		
	</g>
</g>
<g
   transform="translate(-76.43975,-5.0370557e-5)"
   id="g10">
</g>
<g
   transform="translate(-76.43975,-5.0370557e-5)"
   id="g12">
</g>
<g
   transform="translate(-76.43975,-5.0370557e-5)"
   id="g14">
</g>
<g
   transform="translate(-76.43975,-5.0370557e-5)"
   id="g16">
</g>
<g
   transform="translate(-76.43975,-5.0370557e-5)"
   id="g18">
</g>
<g
   transform="translate(-76.43975,-5.0370557e-5)"
   id="g20">
</g>
<g
   transform="translate(-76.43975,-5.0370557e-5)"
   id="g22">
</g>
<g
   transform="translate(-76.43975,-5.0370557e-5)"
   id="g24">
</g>
<g
   transform="translate(-76.43975,-5.0370557e-5)"
   id="g26">
</g>
<g
   transform="translate(-76.43975,-5.0370557e-5)"
   id="g28">
</g>
<g
   transform="translate(-76.43975,-5.0370557e-5)"
   id="g30">
</g>
<g
   transform="translate(-76.43975,-5.0370557e-5)"
   id="g32">
</g>
<g
   transform="translate(-76.43975,-5.0370557e-5)"
   id="g34">
</g>
<g
   transform="translate(-76.43975,-5.0370557e-5)"
   id="g36">
</g>
<g
   transform="translate(-76.43975,-5.0370557e-5)"
   id="g38">
</g>
</svg>