<?xml version="1.0" encoding="UTF-8" standalone="no"?>
<!-- Generator: Adobe Illustrator 16.0.0, SVG Export Plug-In . SVG Version: 6.00 Build 0)  -->

<svg
   xmlns:dc="http://purl.org/dc/elements/1.1/"
   xmlns:cc="http://creativecommons.org/ns#"
   xmlns:rdf="http://www.w3.org/1999/02/22-rdf-syntax-ns#"
   xmlns:svg="http://www.w3.org/2000/svg"
   xmlns="http://www.w3.org/2000/svg"
   xmlns:sodipodi="http://sodipodi.sourceforge.net/DTD/sodipodi-0.dtd"
   xmlns:inkscape="http://www.inkscape.org/namespaces/inkscape"
   version="1.1"
   id="Capa_1"
   x="0px"
   y="0px"
   width="232.07883"
   height="532.15295"
   viewBox="0 0 232.07882 532.15294"
   xml:space="preserve"
   sodipodi:docname="angle-left.svg"
   inkscape:version="0.92.3 (2405546, 2018-03-11)"><metadata
   id="metadata45"><rdf:RDF><cc:Work
       rdf:about=""><dc:format>image/svg+xml</dc:format><dc:type
         rdf:resource="http://purl.org/dc/dcmitype/StillImage" /><dc:title></dc:title></cc:Work></rdf:RDF></metadata><defs
   id="defs43" /><sodipodi:namedview
   pagecolor="#ffffff"
   bordercolor="#666666"
   borderopacity="1"
   objecttolerance="10"
   gridtolerance="10"
   guidetolerance="10"
   inkscape:pageopacity="0"
   inkscape:pageshadow="2"
   inkscape:window-width="1366"
   inkscape:window-height="700"
   id="namedview41"
   showgrid="false"
   fit-margin-top="0"
   fit-margin-left="0"
   fit-margin-right="-0.4"
   fit-margin-bottom="0"
   inkscape:zoom="0.94897517"
   inkscape:cx="80.571734"
   inkscape:cy="266.07648"
   inkscape:window-x="0"
   inkscape:window-y="0"
   inkscape:window-maximized="1"
   inkscape:current-layer="Capa_1" />
<g
   id="g8"
   transform="translate(-76.43975,-5.0370557e-5)">
	<g
   id="g6">
		<path
   d="m 224.334,510.96 c 8.758,13.709 23.586,21.193 38.721,21.193 8.458,0 17.014,-2.338 24.67,-7.228 21.358,-13.647 27.619,-42.032 13.966,-63.391 L 176.812,266.074 301.691,70.614 C 315.338,49.249 309.084,20.87 287.725,7.223 266.371,-6.419 237.981,-0.17 224.333,21.189 L 83.66,241.362 c -9.627,15.067 -9.627,34.357 0,49.425 z"
   id="path2"
   inkscape:connector-curvature="0" />
		
	</g>
</g>
<g
   id="g10"
   transform="translate(-76.43975,-5.0370557e-5)">
</g>
<g
   id="g12"
   transform="translate(-76.43975,-5.0370557e-5)">
</g>
<g
   id="g14"
   transform="translate(-76.43975,-5.0370557e-5)">
</g>
<g
   id="g16"
   transform="translate(-76.43975,-5.0370557e-5)">
</g>
<g
   id="g18"
   transform="translate(-76.43975,-5.0370557e-5)">
</g>
<g
   id="g20"
   transform="translate(-76.43975,-5.0370557e-5)">
</g>
<g
   id="g22"
   transform="translate(-76.43975,-5.0370557e-5)">
</g>
<g
   id="g24"
   transform="translate(-76.43975,-5.0370557e-5)">
</g>
<g
   id="g26"
   transform="translate(-76.43975,-5.0370557e-5)">
</g>
<g
   id="g28"
   transform="translate(-76.43975,-5.0370557e-5)">
</g>
<g
   id="g30"
   transform="translate(-76.43975,-5.0370557e-5)">
</g>
<g
   id="g32"
   transform="translate(-76.43975,-5.0370557e-5)">
</g>
<g
   id="g34"
   transform="translate(-76.43975,-5.0370557e-5)">
</g>
<g
   id="g36"
   transform="translate(-76.43975,-5.0370557e-5)">
</g>
<g
   id="g38"
   transform="translate(-76.43975,-5.0370557e-5)">
</g>
</svg>