<?xml version="1.0" standalone="no"?><!DOCTYPE svg PUBLIC "-//W3C//DTD SVG 1.1//EN" "http://www.w3.org/Graphics/SVG/1.1/DTD/svg11.dtd"><svg class="icon" height="512" viewBox="0 0 1024 1024" version="1.1" xmlns="http://www.w3.org/2000/svg"><path d="M428.4 864.2H161.1c-17.6 0-31.9-14.3-31.9-31.9V162.1c0-17.6 14.3-31.9 31.9-31.9h610.6c17.6 0 31.9 14.3 31.9 31.9v275.5c0 17.7 14.3 32 32 32s32-14.3 32-32V162.1c0-52.9-43-95.9-95.9-95.9H161.1c-52.9 0-95.9 43-95.9 95.9v670.2c0 52.9 43 95.9 95.9 95.9h267.3c17.7 0 32-14.3 32-32s-14.3-32-32-32z" fill="" /><path d="M738 264.7c0-8.8-7.2-16-16-16H211.6c-8.8 0-16 7.2-16 16s7.2 16 16 16H722c8.8 0 16-7.2 16-16zM568.4 378.4c0-8.8-7.2-16-16-16H211.6c-8.8 0-16 7.2-16 16s7.2 16 16 16h340.8c8.8 0 16-7.1 16-16zM550.4 502.2c0-8.8-7.2-16-16-16H211.6c-8.8 0-16 7.2-16 16s7.2 16 16 16h322.8c8.8 0 16-7.2 16-16zM211.6 599.9c-8.8 0-16 7.2-16 16s7.2 16 16 16h267.9c8.8 0 16-7.2 16-16s-7.2-16-16-16H211.6zM495.5 729.7c0-8.8-7.2-16-16-16H211.6c-8.8 0-16 7.2-16 16s7.2 16 16 16h267.9c8.9 0 16-7.2 16-16zM832.6 762.6c23.7-28.5 38-65.1 38-105 0-90.6-73.7-164.2-164.2-164.2S542.2 567 542.2 657.6c0 39.7 14.2 76.1 37.7 104.6l-89 89c-4.5 4.5-5.9 11.1-3.6 17 2.2 5.9 7.7 9.9 14 10.3l61.3 3.8 3.8 61.3c0.4 6.3 4.4 11.8 10.3 14 1.8 0.7 3.8 1 5.7 1 4.2 0 8.3-1.6 11.3-4.7L706 841.4l112.5 112.5c3.1 3.1 7.1 4.7 11.3 4.7 1.9 0 3.8-0.3 5.7-1 5.9-2.2 9.9-7.7 10.3-14l3.8-61.3 61.3-3.8c6.3-0.4 11.8-4.4 14-10.3 2.2-5.9 0.8-12.5-3.6-17l-88.7-88.6zM706.4 557.3c55.3 0 100.2 45 100.2 100.2 0 55.3-45 100.2-100.2 100.2s-100.2-45-100.2-100.2 44.9-100.2 100.2-100.2zM596 906.1l-2.4-40c-0.5-8.1-6.9-14.5-15-15l-40-2.4 64-64c17.3 14.2 37.5 24.9 59.6 31l12.1 12.1-78.3 78.3z m237.4-55c-8.1 0.5-14.5 6.9-15 15l-2.4 40-78.2-78.2 11.8-11.8c22.3-6.1 42.8-16.8 60.2-31l63.6 63.6-40 2.4z" fill="" /></svg>