<?xml version="1.0" standalone="no"?>
<!DOCTYPE svg PUBLIC "-//W3C//DTD SVG 20010904//EN"
 "http://www.w3.org/TR/2001/REC-SVG-20010904/DTD/svg10.dtd">
<svg version="1.0" xmlns="http://www.w3.org/2000/svg"
 width="1280.000000pt" height="803.000000pt" viewBox="0 0 1280.000000 803.000000"
 preserveAspectRatio="xMidYMid meet">
<g transform="translate(0.000000,803.000000) scale(0.100000,-0.100000)"
fill="#000000" stroke="none">
<path d="M12470 8011 c-30 -10 -608 -239 -1285 -509 -676 -269 -1561 -621
-1965 -782 -404 -161 -1693 -688 -2863 -1171 -1555 -643 -2138 -879 -2166
-879 -61 0 -112 23 -228 103 -160 111 -307 179 -558 261 -426 138 -725 170
-1115 120 -651 -84 -1281 -425 -1697 -919 -307 -364 -497 -786 -570 -1265 -24
-160 -24 -528 1 -695 88 -605 346 -1125 761 -1540 394 -395 853 -624 1425
-712 161 -24 547 -24 715 1 309 45 528 110 790 235 365 175 697 447 944 773
162 213 318 494 342 614 19 94 17 401 -5 629 -25 267 -30 460 -14 520 l13 50
120 42 c381 135 499 189 573 261 40 39 65 80 126 207 77 160 107 213 198 357
l49 77 87 -44 c179 -91 332 -128 537 -129 167 -1 263 17 395 73 237 101 446
320 564 591 16 36 30 66 31 67 1 2 42 -11 91 -27 433 -148 741 -144 976 10
189 124 331 365 408 690 13 52 26 98 29 102 4 4 79 -15 166 -43 544 -172 752
-153 995 91 89 89 173 200 250 330 57 96 140 253 140 265 0 22 86 92 152 124
97 46 187 65 308 64 163 -1 266 -33 452 -139 89 -51 103 -56 157 -56 109 0
228 73 348 211 322 375 623 1130 650 1631 6 128 -6 227 -38 300 -51 116 -154
155 -289 111z m-11107 -5080 c385 -99 647 -466 624 -874 -7 -128 -25 -198 -82
-313 -74 -152 -212 -283 -360 -343 -93 -37 -162 -50 -271 -51 -627 -2 -1023
758 -671 1287 93 140 247 250 409 293 100 26 250 26 351 1z"/>
</g>
</svg>
