<?xml version="1.0" encoding="UTF-8" standalone="no"?>
<svg
   xmlns:dc="http://purl.org/dc/elements/1.1/"
   xmlns:cc="http://creativecommons.org/ns#"
   xmlns:rdf="http://www.w3.org/1999/02/22-rdf-syntax-ns#"
   xmlns:svg="http://www.w3.org/2000/svg"
   xmlns="http://www.w3.org/2000/svg"
   xml:space="preserve"
   enable-background="new 0 0 512 512"
   viewBox="0 0 576.02759 224.02061"
   height="224.02061"
   width="576.02759"
   y="0px"
   x="0px"
   id="Layer_1"
   version="1.1"><metadata
     id="metadata9"><rdf:RDF><cc:Work
         rdf:about=""><dc:format>image/svg+xml</dc:format><dc:type
           rdf:resource="http://purl.org/dc/dcmitype/StillImage" /><dc:title></dc:title></cc:Work></rdf:RDF></metadata><defs
     id="defs7" /><path
     style="fill:#ffffff"
     id="path3"
     d="m 383.99222,191.99151 0,-47.99558 -165.18651,-0.0106 c -13.83313,46.18326 -56.1266,79.99145 -106.81767,80.03529 C 50.16004,223.97682 -6.9999267e-4,173.81604 0,112.03258 0,50.16074 50.16075,0 112.03259,0 c 50.64723,0 92.96262,33.87536 106.76252,80.00277 l 325.23588,0.0332 c 17.6006,-0.0106 32.0079,14.3967 31.99658,31.99658 0,17.58999 -14.4073,31.99729 -31.99658,31.99659 l 0,47.99558 c 0,8.83883 -7.15946,15.99829 -15.99829,15.99829 l -31.99658,0 c -8.85015,0.0113 -16.00961,-7.14815 -15.99829,-15.99829 l -7.1e-4,-47.99488 -32.04113,-0.0445 0.0332,48.05002 c 0,8.83884 -7.15946,15.99829 -15.99829,15.99829 l -31.99658,0 c -8.88267,-0.0438 -15.99758,-7.15875 -16.04213,-16.04213 z M 112.03259,63.99458 c -26.51651,0 -48.03942,21.52291 -48.03942,48.03942 0,26.42882 21.56676,47.99558 47.99487,47.99487 26.47267,-0.0438 47.99558,-21.56676 48.03942,-48.03942 0,-26.42882 -21.56675,-47.99558 -47.99487,-47.99487 z" /></svg>