<?xml version="1.0" encoding="UTF-8" standalone="no"?>
<svg
   xmlns:dc="http://purl.org/dc/elements/1.1/"
   xmlns:cc="http://creativecommons.org/ns#"
   xmlns:rdf="http://www.w3.org/1999/02/22-rdf-syntax-ns#"
   xmlns:svg="http://www.w3.org/2000/svg"
   xmlns="http://www.w3.org/2000/svg"
   id="svg16"
   version="1.1"
   viewBox="0 0 132.29166 26.458333"
   height="100"
   width="500">
  <defs
     id="defs10" />
  <metadata
     id="metadata13">
    <rdf:RDF>
      <cc:Work
         rdf:about="">
        <dc:format>image/svg+xml</dc:format>
        <dc:type
           rdf:resource="http://purl.org/dc/dcmitype/StillImage" />
        <dc:title></dc:title>
      </cc:Work>
    </rdf:RDF>
  </metadata>
  <g
     transform="translate(-10.623963,5.6292557)"
     id="layer1">
    <path
       d="m 87.800781,12.873047 c -2.528988,6e-6 -5.058458,0.03018 -7.029297,0.0957 -0.985417,0.03277 -1.822763,0.07719 -2.478515,0.128906 -0.327874,0.02585 -0.605827,0.05095 -0.855469,0.08789 -0.249638,0.03693 -0.357924,-0.04219 -0.914062,0.273437 -0.555342,0.315164 -0.53623,0.43706 -0.69336,0.63086 -0.157115,0.193799 -0.319612,0.423765 -0.505859,0.689453 -0.37251,0.531376 -0.833574,1.222238 -1.353516,2.042969 -1.039892,1.641461 -2.327754,3.777693 -3.587891,5.925781 -1.260132,2.148088 -2.483881,4.306936 -3.408203,6.013672 -0.46216,0.853368 -0.851577,1.594836 -1.132812,2.177734 -0.03895,0.08071 -0.06119,0.138431 -0.0957,0.212891 -0.154529,-0.016 -0.291488,-0.03453 -0.472656,-0.04883 -0.655764,-0.05175 -1.495056,-0.09418 -2.480469,-0.126954 -1.97082,-0.06553 -4.500309,-0.09571 -7.029297,-0.0957 -2.528988,7e-6 -5.058459,0.03018 -7.029297,0.0957 -0.722962,0.02404 -1.267907,0.05911 -1.818359,0.09375 -0.866975,-0.61736 -1.644988,-1.356689 -2.179688,-2.287109 l -0.0332,-0.04883 -0.02344,-0.04102 -3.515626,-5.789062 h -0.0078 l -1.896484,-3.005859 c 0,0 -1.089537,-1.208065 -2.119141,-0.529297 -1.029608,0.678768 -0.523437,1.980468 -0.523437,1.980468 l 1.921874,3.044922 0.02344,0.03125 3.572266,5.878907 0.05664,0.08789 1.398438,1.980469 c -0.0984,0.133211 -0.191156,0.252938 -0.302735,0.412109 -0.37251,0.531377 -0.833573,1.222238 -1.353515,2.042969 -1.039892,1.641461 -2.327755,3.777693 -3.587891,5.925781 -1.260132,2.148088 -2.483882,4.306936 -3.408203,6.013672 -0.438475,0.809633 -0.796904,1.498039 -1.074219,2.066406 L 22.867188,48.732422 c 0,0 -1.525962,0.03403 -1.525391,1.669922 5.14e-4,1.470167 1.595703,1.5625 1.595703,1.5625 l 10.658203,-0.0098 1.054688,2.175781 1.230468,2.025391 c 0.764184,1.36278 1.599496,2.82375 2.490235,4.337891 0.83107,1.412718 1.645948,2.758761 2.421875,4.021484 l 0.757812,1.330078 0.03125,0.06445 0.01758,0.03125 1.166016,2.427735 -5.474609,11.271484 c 0,0 -0.51679,1.30375 0.537109,1.818359 1.230618,0.600904 2.203125,-0.544922 2.203125,-0.544922 l 5.267578,-10.873046 c 0.03979,0.0026 0.07886,0.0068 0.125,0.01367 0.249336,0.03704 0.530122,0.06208 0.857422,0.08789 0.654595,0.05163 1.495094,0.0884 2.478516,0.121094 1.966839,0.06535 4.490005,0.103553 7.013672,0.103516 2.52367,-4.2e-5 5.044852,-0.03817 7.011718,-0.103516 0.981887,-0.03245 1.820496,-0.06967 2.47461,-0.121094 0.03711,0.08825 0.07893,0.158393 0.117187,0.253906 0.09226,0.230438 0.20852,0.47813 0.349609,0.769532 0.282218,0.582807 0.671158,1.324366 1.134766,2.177734 0.927209,1.706733 2.160132,3.865547 3.423828,6.013672 1.263693,2.148121 2.553219,4.27658 3.595703,5.917969 0.521239,0.820694 0.97246,1.51953 1.345703,2.050781 0.186634,0.265625 0.35635,0.486028 0.513672,0.679687 0.157304,0.193663 0.137954,0.317971 0.69336,0.632813 0.554936,0.314532 0.656926,0.244324 0.90625,0.28125 0.249335,0.03704 0.528169,0.06208 0.855468,0.08789 0.654596,0.05163 1.495094,0.08649 2.478516,0.119141 1.96684,0.06535 4.490006,0.105507 7.013672,0.105469 2.52367,-4.2e-5 5.044853,-0.04012 7.011719,-0.105469 0.983433,-0.0325 1.825911,-0.06759 2.480469,-0.119141 0.327269,-0.0257 0.60625,-0.05108 0.855468,-0.08789 0.249222,-0.03666 0.350079,0.03988 0.904297,-0.273438 0.556634,-0.314683 0.535882,-0.446973 0.693359,-0.640625 0.157493,-0.193663 0.326903,-0.414085 0.513668,-0.679687 0.37357,-0.531205 0.82403,-1.23011 1.34571,-2.050781 1.04335,-1.64134 2.34071,-3.769807 3.60547,-5.917969 1.26475,-2.148163 2.49582,-4.306883 3.42382,-6.013672 0.464,-0.853395 0.85035,-1.594909 1.13282,-2.177734 0.14124,-0.291402 0.25923,-0.539067 0.35156,-0.769532 0.0923,-0.230475 0.21213,-0.274552 0.21289,-0.904296 7.6e-4,-0.631526 -0.12071,-0.681423 -0.21289,-0.91211 -0.0922,-0.230702 -0.21059,-0.485878 -0.35156,-0.777344 -0.28203,-0.582931 -0.66159,-1.316557 -1.125,-2.169922 -0.92683,-1.706728 -2.16041,-3.865592 -3.42383,-6.013671 -1.26342,-2.148077 -2.55341,-4.284351 -3.5957,-5.925782 -0.52115,-0.820715 -0.98233,-1.511691 -1.35547,-2.042968 -0.14373,-0.204645 -0.265122,-0.367449 -0.388675,-0.529297 0.154853,-0.190917 0.320815,-0.405646 0.503905,-0.666016 0.37357,-0.531202 0.82403,-1.230111 1.3457,-2.050781 1.04335,-1.641341 2.33877,-3.769805 3.60352,-5.917969 1.26475,-2.148164 2.49778,-4.306884 3.42578,-6.013672 0.464,-0.853394 0.85035,-1.594909 1.13281,-2.177734 0.14124,-0.291413 0.25923,-0.539069 0.35157,-0.769531 0.0924,-0.230461 0.21018,-0.274549 0.21093,-0.904297 7.6e-4,-0.631526 -0.11875,-0.681424 -0.21093,-0.91211 -0.0922,-0.230686 -0.21056,-0.485878 -0.35157,-0.777343 -0.28202,-0.582931 -0.66158,-1.316557 -1.125,-2.169922 -0.92682,-1.706731 -2.16041,-3.865594 -3.42382,-6.013672 -1.26342,-2.148078 -2.55536,-4.284351 -3.59766,-5.925781 -0.52115,-0.820716 -0.98037,-1.511692 -1.35352,-2.042969 -0.18655,-0.26564 -0.348639,-0.495819 -0.505856,-0.689453 -0.15719,-0.193637 -0.137399,-0.316055 -0.691406,-0.63086 -0.55649,-0.316221 -0.664372,-0.236454 -0.914062,-0.273437 -0.249676,-0.03696 -0.527588,-0.06202 -0.855469,-0.08789 -0.655763,-0.05175 -1.495055,-0.09614 -2.480469,-0.128906 -1.970819,-0.06553 -4.500309,-0.09571 -7.029297,-0.0957 z m 0,2.970703 c 2.502592,-6e-6 5.007207,0.03392 6.923828,0.09766 0.958311,0.03186 1.774771,0.07393 2.347657,0.119141 0.199596,0.01576 0.318844,0.03347 0.449218,0.04883 0.07835,0.102849 0.149203,0.191326 0.261719,0.351563 0.326098,0.464271 0.772462,1.139327 1.279297,1.9375 1.01367,1.596345 2.28884,3.704439 3.53906,5.830078 1.25022,2.125638 2.47567,4.273892 3.37696,5.933593 0.45064,0.82985 0.82205,1.541674 1.06836,2.050782 0.086,0.177766 0.13594,0.289749 0.1875,0.408203 -0.0516,0.117789 -0.10273,0.225452 -0.1875,0.40039 -0.24685,0.509306 -0.61711,1.220822 -1.06836,2.050782 -0.90253,1.659919 -2.1254,3.800038 -3.37696,5.925781 -1.25155,2.125742 -2.53224,4.241716 -3.546872,5.837891 -0.507319,0.798086 -0.952969,1.465655 -1.279297,1.929687 -0.112328,0.159712 -0.183445,0.256749 -0.261719,0.359375 -0.130394,0.01535 -0.25697,0.03306 -0.457031,0.04883 -0.571915,0.04506 -1.383457,0.07955 -2.339844,0.111328 -1.912778,0.06354 -4.408961,0.09566 -6.90625,0.0957 -2.497285,4.1e-5 -4.995551,-0.03215 -6.908203,-0.0957 -0.95633,-0.03179 -1.768077,-0.06623 -2.339844,-0.111328 -0.200013,-0.01576 -0.326706,-0.03344 -0.457031,-0.04883 -0.07824,-0.102682 -0.147552,-0.199622 -0.259766,-0.359375 -0.23244,-0.330815 -0.577331,-0.863866 -0.908203,-1.375 -0.118896,-0.224475 -0.189273,-0.378143 -0.322266,-0.623047 -0.926823,-1.706731 -2.160411,-3.865594 -3.423828,-6.013672 -1.263416,-2.148078 -2.555357,-4.28435 -3.597656,-5.925781 -0.127061,-0.200099 -0.210717,-0.313892 -0.330078,-0.498047 -0.247008,-0.467654 -0.524279,-0.98362 -0.681641,-1.308594 -0.08595,-0.177448 -0.127983,-0.289727 -0.179687,-0.408203 0.05144,-0.118393 0.09408,-0.2308 0.179687,-0.408203 0.24567,-0.509163 0.609163,-1.220918 1.058594,-2.050781 0.898862,-1.659727 2.122191,-3.800173 3.369141,-5.925781 1.246945,-2.125609 2.527842,-4.233876 3.539062,-5.830078 0.505606,-0.798102 0.946154,-1.473416 1.271484,-1.9375 0.11229,-0.160173 0.183559,-0.248828 0.261719,-0.351563 0.130394,-0.01534 0.24765,-0.03309 0.447266,-0.04883 0.572957,-0.04518 1.391268,-0.08729 2.349609,-0.119141 1.916682,-0.06371 4.41928,-0.09765 6.921875,-0.09766 z M 55.763672,33.851562 c 2.502591,-6e-6 5.007207,0.03196 6.923828,0.0957 0.958311,0.03186 1.774771,0.07393 2.347656,0.11914 0.199597,0.01576 0.318844,0.03348 0.449219,0.04883 0.07835,0.102849 0.149202,0.191326 0.261719,0.351563 0.232503,0.331019 0.578724,0.869142 0.912109,1.382812 0.119521,0.22481 0.191571,0.378881 0.324219,0.623047 0.927209,1.706734 2.162085,3.86555 3.425781,6.013672 1.263693,2.148123 2.553219,4.276579 3.595703,5.917969 0.112697,0.177442 0.184961,0.277827 0.291016,0.443359 0.263088,0.496642 0.550023,1.030406 0.714844,1.371094 0.08602,0.177766 0.135909,0.28975 0.1875,0.408203 -0.05155,0.117789 -0.102726,0.225452 -0.1875,0.400391 -0.246841,0.509305 -0.617103,1.220821 -1.06836,2.050781 -0.902521,1.659919 -2.125396,3.800039 -3.376953,5.925781 -1.251553,2.125742 -2.532238,4.241717 -3.546875,5.837891 -0.507318,0.798089 -0.952969,1.465656 -1.279297,1.929687 -0.112327,0.159723 -0.183444,0.258677 -0.261719,0.361328 -0.130393,0.0155 -0.256969,0.03096 -0.457031,0.04688 -0.571914,0.04505 -1.383457,0.0815 -2.339843,0.113281 -1.912778,0.06353 -4.408962,0.09563 -6.90625,0.0957 -2.497286,4.1e-5 -4.995551,-0.03209 -6.908204,-0.0957 -0.95633,-0.03175 -1.768076,-0.06819 -2.339843,-0.113281 -0.200013,-0.01587 -0.326706,-0.03134 -0.457032,-0.04688 -0.07824,-0.102689 -0.147551,-0.201567 -0.259765,-0.361328 -0.326098,-0.464141 -0.766527,-1.131557 -1.273438,-1.929687 -0.36101,-0.568411 -0.783587,-1.260346 -1.199218,-1.9375 l -2.496094,-4.384766 -0.01563,-0.04102 -2.371094,-3.896485 C 38.168943,54.074302 37.856433,53.5257 37.613281,53.078125 37.162402,52.248189 36.79154,51.536642 36.544922,51.027344 c -0.08595,-0.177449 -0.127984,-0.289728 -0.179688,-0.408203 0.05144,-0.118394 0.09408,-0.230801 0.179688,-0.408203 0.245669,-0.509163 0.609162,-1.218965 1.058594,-2.048829 0.898862,-1.659727 2.122191,-3.802125 3.36914,-5.927734 1.246946,-2.125609 2.527843,-4.231922 3.539063,-5.828125 0.505606,-0.798101 0.946154,-1.475368 1.271484,-1.939453 0.11229,-0.160173 0.183558,-0.248828 0.261719,-0.351563 0.130394,-0.01535 0.24765,-0.0331 0.447266,-0.04883 0.572957,-0.04519 1.391268,-0.08728 2.349609,-0.11914 1.916682,-0.06371 4.41928,-0.0957 6.921875,-0.0957 z m 31.916016,18.865235 c 2.502591,-6e-6 5.005253,0.03196 6.921874,0.0957 0.958311,0.03186 1.776724,0.07393 2.34961,0.119141 0.199597,0.01576 0.316928,0.03347 0.447266,0.04883 0.07839,0.102848 0.149202,0.191325 0.261718,0.351562 0.326098,0.464271 0.772462,1.139328 1.279297,1.9375 1.013673,1.596346 2.288847,3.70444 3.539067,5.830078 1.25021,2.125641 2.47566,4.273894 3.37695,5.933594 0.45064,0.829852 0.82206,1.541671 1.06836,2.050781 0.086,0.177752 0.13595,0.289768 0.1875,0.408204 -0.0515,0.11777 -0.10273,0.225443 -0.1875,0.40039 -0.24684,0.509307 -0.6171,1.220824 -1.06836,2.050781 -0.90252,1.65992 -2.1254,3.800039 -3.37695,5.925782 -1.25156,2.125742 -2.532242,4.241713 -3.546879,5.83789 -0.507319,0.798085 -0.952969,1.465656 -1.279297,1.929688 -0.112328,0.159723 -0.183445,0.256761 -0.261719,0.359375 -0.130394,0.0155 -0.25697,0.03292 -0.457031,0.04883 -0.571915,0.04505 -1.383457,0.07958 -2.339844,0.111328 -1.912777,0.06353 -4.408961,0.09762 -6.90625,0.09766 -2.497285,4.2e-5 -4.99555,-0.03408 -6.908203,-0.09766 -0.95633,-0.03175 -1.768077,-0.06624 -2.339844,-0.111328 -0.200012,-0.01587 -0.326705,-0.03329 -0.457031,-0.04883 -0.07824,-0.10269 -0.147552,-0.199652 -0.259766,-0.359375 -0.32612,-0.464145 -0.766527,-1.131561 -1.273437,-1.929688 -1.013821,-1.596261 -2.296366,-3.712178 -3.546875,-5.83789 -1.250514,-2.125709 -2.47325,-4.265911 -3.375,-5.925782 -0.450879,-0.829935 -0.821742,-1.541482 -1.06836,-2.050781 -0.08591,-0.177449 -0.127983,-0.28973 -0.179687,-0.408203 0.05144,-0.118413 0.09408,-0.230803 0.179687,-0.408203 0.24567,-0.509163 0.611116,-1.220918 1.060547,-2.050781 0.898863,-1.659727 2.120238,-3.800171 3.367188,-5.925782 1.246945,-2.125608 2.527842,-4.233875 3.539062,-5.830078 0.505607,-0.798101 0.946154,-1.473415 1.271485,-1.9375 0.112289,-0.160172 0.183558,-0.248827 0.261718,-0.351562 0.130394,-0.01534 0.24765,-0.03309 0.447266,-0.04883 0.572957,-0.04518 1.391269,-0.08729 2.349609,-0.119141 1.916682,-0.06371 4.421233,-0.0957 6.923829,-0.0957 z M 471.8907,55.50872 c 2.34795,-1.308375 4.85242,-1.580954 7.35688,-1.580954 h 8.50485 v -6.051235 h -8.50485 c -2.55662,0 -5.00893,0.163544 -7.35688,1.580954 V 37.136951 h 21.70548 v -5.996719 h -27.39273 v 40.668662 h 29.68853 V 65.866691 H 471.8907 Z M 456.38065,36.373733 c -3.8089,-3.979641 -9.13089,-6.432845 -14.97472,-6.432845 -11.16574,0 -20.97498,8.940564 -20.97498,20.934003 0,12.266019 9.13089,21.860766 20.92282,21.860766 6.26125,0 12.00065,-2.780292 15.9139,-7.359609 l -3.4958,-4.960922 c -2.81757,3.925127 -7.30477,6.378328 -12.36594,6.378328 -8.13951,0 -15.39209,-6.432844 -15.39209,-15.20986 0,-9.158626 6.67862,-15.645986 15.33993,-15.645986 4.43505,0 8.55701,1.853531 11.37457,4.906407 z m -62.0035,-0.926766 -16.85306,36.361927 h 6.15685 l 0.99141,-1.908045 c 0.88694,-1.689986 4.69587,-4.034158 11.7919,-4.034158 h 11.84409 l 2.55666,5.942203 h 6.36556 L 398.49915,30.431529 h -6.26121 z m 4.17415,24.423004 c -5.32199,0 -8.5048,1.035795 -9.91355,2.289657 l 8.60912,-19.462082 8.50481,17.172425 z M 360.20338,48.530719 c -2.55666,0 -5.06112,0.21806 -7.40908,1.635469 V 37.082436 h 14.2964 c 3.7567,0 5.73944,1.580953 5.73944,5.669626 0,3.925125 -2.03489,5.778657 -5.73944,5.778657 z M 352.7943,71.808894 V 56.162907 c 2.34796,-1.308375 4.90458,-1.635469 7.40908,-1.635469 h 6.88732 c 6.88732,0 11.37453,-4.579313 11.37453,-11.775376 0,-7.25058 -4.48721,-11.61183 -11.37453,-11.61183 h -19.98365 v 40.668662 z m -14.61404,-12.37505 c 0,-7.686702 -3.49584,-12.102469 -17.11396,-12.102469 -6.62644,0 -8.29609,-2.235141 -8.29609,-4.688344 0,-3.543517 3.65237,-6.705423 8.03521,-6.705423 4.95678,0 7.93085,1.253859 12.10499,4.797375 l 3.548,-4.36125 c -4.6437,-4.688345 -9.75703,-6.432845 -15.65299,-6.432845 -8.34827,0 -14.34859,6.160266 -14.34859,12.756658 0,6.923486 5.06114,10.521517 14.34859,10.521517 5.63508,0 11.53106,0 11.53106,6.214781 0,5.069957 -5.79163,7.35961 -11.53106,7.35961 -6.10467,0 -9.91357,-3.816095 -11.94846,-6.378328 l -4.06978,3.979639 c 3.91325,5.28802 10.0701,8.340892 16.01824,8.340892 9.86138,0 17.37484,-5.124465 17.37484,-13.301813 z M 298.09503,36.373733 c -3.8089,-3.979641 -9.13092,-6.432845 -14.97471,-6.432845 -11.16581,0 -20.97502,8.940564 -20.97502,20.934003 0,12.266019 9.13091,21.860766 20.92284,21.860766 6.2612,0 12.00064,-2.780292 15.91389,-7.359609 l -3.49584,-4.960922 c -2.81754,3.925127 -7.30473,6.378328 -12.36587,6.378328 -8.13956,0 -15.39212,-6.432844 -15.39212,-15.20986 0,-9.158626 6.67861,-15.645986 15.33994,-15.645986 4.43502,0 8.55698,1.853531 11.37452,4.906407 z M 252.75217,71.808894 V 31.140232 h -5.5829 V 71.808894 Z M 236.02171,36.373733 c -3.8089,-3.979641 -9.13092,-6.432845 -14.97471,-6.432845 -11.16581,0 -20.97502,8.940564 -20.97502,20.934003 0,12.266019 9.13092,21.860766 20.92285,21.860766 6.2612,0 12.00063,-2.780292 15.91388,-7.359609 V 49.566516 h -13.09634 l 2.4523,5.887688 h 5.00896 v 7.414127 c -2.71319,2.453201 -6.31338,3.925123 -10.22663,3.925123 -8.13956,0 -15.39212,-6.432844 -15.39212,-15.20986 0,-9.158626 6.67861,-15.645986 15.33995,-15.645986 4.43501,0 8.55697,1.853531 11.37451,4.906407 z M 187.5662,51.201985 c 0,8.83153 -6.9395,15.591469 -15.28777,15.591469 -8.13956,0 -15.39212,-6.432844 -15.39212,-15.20986 0,-9.158626 6.67862,-15.645986 15.33995,-15.645986 8.29609,0 15.33994,6.323813 15.33994,15.264377 z m 5.63508,0.327096 c 0,-12.156987 -9.3918,-21.588191 -20.92285,-21.588191 -11.16581,0 -20.97502,8.940564 -20.97502,20.934003 0,12.266018 9.13092,21.860765 20.92285,21.860765 11.27016,0 20.97502,-9.21314 20.97502,-21.206577 z M 148.12583,71.808894 V 65.866691 H 126.52469 V 31.140232 h -5.68726 v 40.668662 z"
       style="color:#000000;font-style:normal;font-variant:normal;font-weight:normal;font-stretch:normal;font-size:medium;line-height:normal;font-family:sans-serif;font-variant-ligatures:normal;font-variant-position:normal;font-variant-caps:normal;font-variant-numeric:normal;font-variant-alternates:normal;font-feature-settings:normal;text-indent:0;text-align:start;text-decoration:none;text-decoration-line:none;text-decoration-style:solid;text-decoration-color:#000000;letter-spacing:normal;word-spacing:normal;text-transform:none;writing-mode:lr-tb;direction:ltr;text-orientation:mixed;dominant-baseline:auto;baseline-shift:baseline;text-anchor:start;white-space:normal;shape-padding:0;clip-rule:nonzero;display:inline;overflow:visible;visibility:visible;opacity:1;isolation:auto;mix-blend-mode:normal;color-interpolation:sRGB;color-interpolation-filters:linearRGB;solid-color:#000000;solid-opacity:1;vector-effect:none;fill:#ffffff;fill-opacity:1;fill-rule:nonzero;stroke:none;stroke-width:3;stroke-linecap:butt;stroke-linejoin:round;stroke-miterlimit:4;stroke-dasharray:none;stroke-dashoffset:0;stroke-opacity:1;color-rendering:auto;image-rendering:auto;shape-rendering:auto;text-rendering:auto;enable-background:accumulate"
       transform="matrix(0.26458332,0,0,0.26458332,10.623963,-5.6292557)"
       id="path853" />
  </g>
</svg>
