<?xml version="1.0" encoding="UTF-8" standalone="no"?>
<svg
   xmlns:dc="http://purl.org/dc/elements/1.1/"
   xmlns:cc="http://creativecommons.org/ns#"
   xmlns:rdf="http://www.w3.org/1999/02/22-rdf-syntax-ns#"
   xmlns:svg="http://www.w3.org/2000/svg"
   xmlns="http://www.w3.org/2000/svg"
   version="1.1"
   id="svg2"
   viewBox="0 0 204.08896 175.5888"
   height="175.58881"
   width="204.08897">
  <defs
     id="defs4" />
  <metadata
     id="metadata7">
    <rdf:RDF>
      <cc:Work
         rdf:about="">
        <dc:format>image/svg+xml</dc:format>
        <dc:type
           rdf:resource="http://purl.org/dc/dcmitype/StillImage" />
        <dc:title></dc:title>
      </cc:Work>
    </rdf:RDF>
  </metadata>
  <g
     transform="translate(1.2438314,-852.07032)"
     id="layer1">
    <path
       id="path4140"
       d="m 202.84597,939.86504 c 0,-1.27534 -0.19202,-1.37409 -0.26558,-1.59255 -0.0736,-0.21846 -0.1215,-0.33254 -0.16504,-0.43399 -0.0871,-0.20291 -0.14987,-0.33027 -0.21815,-0.46752 -0.13657,-0.2745 -0.28733,-0.55784 -0.47614,-0.9071 -0.37763,-0.69854 -0.89891,-1.63308 -1.55931,-2.8014 -1.32079,-2.33665 -3.18963,-5.5916 -5.43482,-9.46962 -4.49035,-7.75604 -10.47809,-17.9962 -16.49225,-28.22446 -6.01415,-10.22826 -12.05411,-20.44052 -16.64969,-28.13691 -2.2978,-3.8482 -4.23349,-7.0664 -5.634,-9.35786 -0.70025,-1.14573 -1.26291,-2.05466 -1.6902,-2.72503 -0.21364,-0.33519 -0.38958,-0.6053 -0.5634,-0.85868 -0.0869,-0.12669 -0.1662,-0.24359 -0.30162,-0.41909 -0.0677,-0.0878 -0.14382,-0.1877 -0.29972,-0.35949 -0.15589,-0.17178 -0.14803,-0.38305 -1.27287,-1.02072 -1.12483,-0.63767 -1.30708,-0.52516 -1.53654,-0.57183 -0.22946,-0.0467 -0.3554,-0.0608 -0.46666,-0.0745 -0.22249,-0.0274 -0.36647,-0.0379 -0.52166,-0.0484 -0.31039,-0.0211 -0.63519,-0.0344 -1.03765,-0.0484 -0.8049,-0.0282 -1.88885,-0.0538 -3.2495,-0.0764 -2.7213,-0.0452 -6.52774,-0.0819 -11.07072,-0.11175 -9.08593,-0.0597 -21.11174,-0.0894 -33.14004,-0.0894 -12.028308,0 -24.054119,0.0298 -33.140048,0.0894 -4.542974,0.0298 -8.347519,0.0666 -11.06882,0.11175 -1.360651,0.0226 -2.446487,0.0482 -3.251399,0.0764 -0.402456,0.0141 -0.727251,0.0273 -1.037643,0.0484 -0.155195,0.0106 -0.299173,0.021 -0.521667,0.0484 -0.111256,0.0137 -0.237198,0.0278 -0.466655,0.0745 -0.229458,0.0467 -0.411712,-0.0658 -1.536544,0.57183 -1.124841,0.63767 -1.11508,0.84894 -1.270975,1.02072 -0.155886,0.17179 -0.232012,0.27174 -0.299718,0.35949 -0.135411,0.1755 -0.216598,0.2924 -0.303515,0.41909 -0.173824,0.25338 -0.347862,0.52349 -0.561498,0.85868 -0.427291,0.67037 -0.991848,1.5793 -1.692099,2.72503 -1.40051,2.29146 -3.336208,5.50966 -5.633997,9.35786 -4.595577,7.69639 -10.635546,17.90865 -16.649699,28.13691 -6.014153,10.22826 -11.999994,20.46841 -16.4903562,28.22446 -2.245176,3.87802 -4.1159166,7.13297 -5.4367072,9.46962 -0.6604002,1.16832 -1.18168851,2.10286 -1.5593098,2.8014 -0.18881064,0.34926 -0.33768356,0.6326 -0.47424105,0.9071 -0.0682885,0.13725 -0.13106994,0.26461 -0.21815205,0.46752 -0.043541,0.10145 -0.0933661,0.21553 -0.16693813,0.43399 -0.0735624,0.21846 -0.26367447,0.31721 -0.26367447,1.59255 0,1.27534 0.1901121,1.37409 0.26367447,1.59255 0.0735721,0.21845 0.12339708,0.33254 0.16693813,0.43399 0.0870821,0.2029 0.14986359,0.33028 0.21815205,0.46753 0.13655749,0.27449 0.28543041,0.55783 0.47424105,0.9071 0.37762129,0.69853 0.8989096,1.63307 1.5593098,2.8014 1.3207906,2.33664 3.1915312,5.58973 5.4367072,9.46775 4.4903622,7.75604 10.4762032,17.99806 16.4903562,28.22632 6.014153,10.22826 12.054122,20.44052 16.649699,28.13692 2.297789,3.8482 4.233487,7.0645 5.633997,9.356 0.700251,1.1457 1.264808,2.0565 1.692099,2.7269 0.213636,0.3352 0.387674,0.6053 0.561498,0.8587 0.08692,0.1266 0.168104,0.2435 0.303515,0.419 0.06771,0.088 0.143832,0.1859 0.299718,0.3577 0.155895,0.1718 0.146134,0.383 1.270975,1.0207 1.124832,0.6377 1.307086,0.5252 1.536544,0.5718 0.229457,0.047 0.355399,0.063 0.466655,0.076 0.222494,0.027 0.366472,0.038 0.521667,0.048 0.310392,0.021 0.635187,0.034 1.037643,0.048 0.804912,0.028 1.890748,0.052 3.251399,0.075 2.721301,0.045 6.525846,0.082 11.06882,0.1117 9.085929,0.06 21.11174,0.089 33.140048,0.089 12.0283,0 24.05411,-0.03 33.14004,-0.089 4.54298,-0.03 8.34942,-0.066 11.07072,-0.1117 1.36065,-0.023 2.4446,-0.046 3.2495,-0.075 0.40246,-0.014 0.72726,-0.027 1.03765,-0.048 0.15519,-0.011 0.29917,-0.021 0.52166,-0.048 0.11126,-0.014 0.2372,-0.03 0.46666,-0.076 0.22946,-0.047 0.41171,0.066 1.53654,-0.5718 1.12484,-0.6377 1.11698,-0.8489 1.27287,-1.0207 0.1559,-0.1718 0.23201,-0.2699 0.29972,-0.3577 0.13542,-0.1755 0.21471,-0.2924 0.30162,-0.419 0.17382,-0.2534 0.34976,-0.5235 0.5634,-0.8587 0.42729,-0.6704 0.98995,-1.5812 1.6902,-2.7269 1.40051,-2.2915 3.33621,-5.5078 5.634,-9.356 4.59557,-7.6964 10.63554,-17.90866 16.64969,-28.13692 6.01416,-10.22826 12.0019,-20.47028 16.49225,-28.22632 2.24518,-3.87802 4.11403,-7.13111 5.43482,-9.46775 0.6604,-1.16833 1.18168,-2.10287 1.55931,-2.8014 0.18881,-0.34927 0.33957,-0.63261 0.47614,-0.9071 0.0683,-0.13725 0.13107,-0.26463 0.21815,-0.46753 0.0435,-0.10145 0.0915,-0.21554 0.16504,-0.43399 0.0736,-0.21846 0.26558,-0.31721 0.26558,-1.59255 z m -10.73305,0 c -0.25556,0.45954 -0.43571,0.79147 -0.77587,1.39325 -1.28885,2.28015 -3.1476,5.51804 -5.3836,9.38021 -4.472,7.72435 -10.45243,17.95475 -16.4581,28.16858 -6.00567,10.21383 -12.03875,20.41424 -16.61556,28.07922 -2.28839,3.8324 -4.21423,7.0342 -5.58088,9.2703 -0.36063,0.59 -0.56283,0.9089 -0.84035,1.356 -0.53354,0.012 -0.9164,0.026 -1.61812,0.037 -2.6555,0.044 -6.44198,0.082 -10.96638,0.1118 -9.0488,0.059 -21.06231,0.087 -33.07365,0.087 -12.011341,0 -24.024855,-0.028 -33.073653,-0.087 -4.524405,-0.03 -8.310884,-0.068 -10.966383,-0.1118 -0.701717,-0.012 -1.084583,-0.025 -1.618119,-0.037 -0.277505,-0.4471 -0.479709,-0.766 -0.840353,-1.356 -1.366643,-2.2361 -3.292482,-5.4379 -5.580879,-9.2703 C 44.14423,999.22132 38.113031,989.02091 32.107367,978.80708 26.101692,968.59325 20.121271,958.36285 15.649265,950.6385 c -2.236007,-3.86217 -4.096647,-7.10006 -5.385503,-9.38021 -0.3401502,-0.60178 -0.520307,-0.93371 -0.7758521,-1.39325 0.2556423,-0.45972 0.4355174,-0.79113 0.7758521,-1.39325 1.288856,-2.28015 3.149496,-5.5199 5.385503,-9.38207 4.472006,-7.72435 10.452427,-17.95475 16.458102,-28.16858 6.005664,-10.21383 12.036863,-20.41423 16.613656,-28.07917 2.288397,-3.83247 4.214236,-7.0324 5.580879,-9.26846 0.360858,-0.59042 0.564626,-0.90877 0.842257,-1.35599 0.533118,-0.0125 0.915314,-0.0256 1.616215,-0.0373 2.655499,-0.0441 6.441978,-0.082 10.966383,-0.11175 9.048798,-0.0594 21.062312,-0.0894 33.073653,-0.0894 12.01134,0 24.02485,0.03 33.07365,0.0894 4.5244,0.0297 8.31088,0.0677 10.96638,0.11175 0.7009,0.0116 1.0831,0.0248 1.61622,0.0373 0.27763,0.44722 0.4814,0.76557 0.84225,1.35599 1.36665,2.23606 3.29249,5.43599 5.58088,9.26846 4.57681,7.66494 10.60989,17.86534 16.61556,28.07917 6.00567,10.21383 11.9861,20.44423 16.4581,28.16858 2.236,3.86217 4.09475,7.10192 5.3836,9.38207 0.34035,0.60212 0.52022,0.93353 0.77587,1.39325 z"
       style="color:#000000;font-style:normal;font-variant:normal;font-weight:normal;font-stretch:normal;font-size:medium;line-height:normal;font-family:sans-serif;text-indent:0;text-align:start;text-decoration:none;text-decoration-line:none;text-decoration-style:solid;text-decoration-color:#000000;letter-spacing:normal;word-spacing:normal;text-transform:none;direction:ltr;block-progression:tb;writing-mode:lr-tb;baseline-shift:baseline;text-anchor:start;white-space:normal;clip-rule:nonzero;display:inline;overflow:visible;visibility:visible;opacity:1;isolation:auto;mix-blend-mode:normal;color-interpolation:sRGB;color-interpolation-filters:linearRGB;solid-color:#000000;solid-opacity:1;fill:#ffffff;fill-opacity:1;fill-rule:nonzero;stroke:none;stroke-width:10.39049816;stroke-linecap:butt;stroke-linejoin:miter;stroke-miterlimit:4;stroke-dasharray:none;stroke-dashoffset:0;stroke-opacity:1;color-rendering:auto;image-rendering:auto;shape-rendering:auto;text-rendering:auto;enable-background:accumulate" />
  </g>
</svg>
