<?xml version="1.0" encoding="UTF-8" standalone="no"?>
<svg
   xmlns:dc="http://purl.org/dc/elements/1.1/"
   xmlns:cc="http://creativecommons.org/ns#"
   xmlns:rdf="http://www.w3.org/1999/02/22-rdf-syntax-ns#"
   xmlns:svg="http://www.w3.org/2000/svg"
   xmlns="http://www.w3.org/2000/svg"
   xmlns:sodipodi="http://sodipodi.sourceforge.net/DTD/sodipodi-0.dtd"
   xmlns:inkscape="http://www.inkscape.org/namespaces/inkscape"
   id="svg4206"
   version="1.1"
   viewBox="0 0 430.36295 892.40234"
   height="446.20117"
   class="icon"
   inkscape:version="0.91 r13725"
   sodipodi:docname="cert-icon.svg"
   width="430.36295">
  <sodipodi:namedview
     pagecolor="#ffffff"
     bordercolor="#666666"
     borderopacity="1"
     objecttolerance="10"
     gridtolerance="10"
     guidetolerance="10"
     inkscape:pageopacity="0"
     inkscape:pageshadow="2"
     inkscape:window-width="1301"
     inkscape:window-height="744"
     id="namedview5491"
     showgrid="false"
     fit-margin-top="0"
     fit-margin-left="0"
     fit-margin-right="0"
     fit-margin-bottom="0"
     inkscape:zoom="0.29101562"
     inkscape:cx="223.40039"
     inkscape:cy="223.30078"
     inkscape:window-x="65"
     inkscape:window-y="24"
     inkscape:window-maximized="1"
     inkscape:current-layer="svg4206" />
  <metadata
     id="metadata4216">
    <rdf:RDF>
      <cc:Work
         rdf:about="">
        <dc:format>image/svg+xml</dc:format>
        <dc:type
           rdf:resource="http://purl.org/dc/dcmitype/StillImage" />
        <dc:title></dc:title>
      </cc:Work>
    </rdf:RDF>
  </metadata>
  <defs
     id="defs4214" />
  <path
     style="fill:#ffffff"
     id="path4208"
     d="M -112.09766,0 C -164.99766,0 -208,43.002344 -208,95.902344 l 0,670.199216 c 0,52.9 43.00234,95.89844 95.90234,95.89844 l 267.29688,0 c 17.7,0 32,-14.3 32,-32 0,-17.7 -14.3,-32 -32,-32 l -267.29688,0 C -129.69766,798 -144,783.70156 -144,766.10156 l 0,-670.199216 C -144,78.302344 -129.69766,64 -112.09766,64 L 498.5,64 c 17.6,0 31.90234,14.302344 31.90234,31.902344 l 0,275.499996 c 0,17.7 14.3,32 32,32 17.7,0 32,-14.3 32,-32 l 0,-275.499996 C 594.40234,43.002344 551.4,0 498.5,0 l -610.59766,0 z m 50.5,182.5 c -8.8,0 -16,7.2 -16,16 0,8.8 7.2,16 16,16 l 510.39844,0 c 8.8,0 16,-7.2 16,-16 0,-8.8 -7.2,-16 -16,-16 l -510.39844,0 z m 0,113.69922 c -8.8,0 -16,7.2 -16,16 0,8.8 7.2,16 16,16 l 340.79688,0 c 8.8,0 16,-7.1 16,-16 0,-8.8 -7.2,-16 -16,-16 l -340.79688,0 z m 0,123.80078 c -8.8,0 -16,7.2 -16,16 0,8.8 7.2,16 16,16 l 322.79688,0 c 8.8,0 16,-7.2 16,-16 0,-8.8 -7.2,-16 -16,-16 l -322.79688,0 z m 494.79688,7.19922 C 342.69922,427.19922 269,500.80234 269,591.40234 269,631.10234 283.19922,667.5 306.69922,696 l -89,89 c -4.5,4.5 -5.89766,11.1 -3.59766,17 2.2,5.9 7.7,9.90078 14,10.30078 l 61.30078,3.80078 3.79688,61.30078 c 0.4,6.3 4.40078,11.8 10.30078,14 1.8,0.7 3.79922,1 5.69922,1 4.2,0 8.30078,-1.60312 11.30078,-4.70312 l 112.30078,-112.5 112.5,112.5 c 3.1,3.1 7.10078,4.70312 11.30078,4.70312 1.9,0 3.79922,-0.3 5.69922,-1 5.9,-2.2 9.90078,-7.7 10.30078,-14 l 3.80078,-61.30078 61.29688,-3.80078 c 6.3,-0.4 11.8,-4.40078 14,-10.30078 2.2,-5.9 0.80234,-12.5 -3.59766,-17 l -88.69922,-88.59766 c 23.7,-28.5 38,-65.1 38,-105 0,-90.6 -73.70312,-164.20312 -164.20312,-164.20312 z m 0,63.90234 c 55.3,0 100.20312,44.99922 100.20312,100.19922 0,55.3 -45.00312,100.19922 -100.20312,100.19922 C 377.99922,691.5 333,646.50078 333,591.30078 c 0,-55.2 44.89922,-100.19922 100.19922,-100.19922 z m -494.79688,42.59766 c -8.8,0 -16,7.2 -16,16 0,8.8 7.2,16 16,16 l 267.89844,0 c 8.8,0 16,-7.2 16,-16 0,-8.8 -7.2,-16 -16,-16 l -267.89844,0 z m 0,113.80078 c -8.8,0 -16,7.2 -16,16 0,8.8 7.2,16 16,16 l 267.89844,0 c 8.9,0 16,-7.2 16,-16 0,-8.8 -7.2,-16 -16,-16 l -267.89844,0 z m 391,71 c 17.3,14.2 37.49766,24.9 59.59766,31 l 12.10156,12.10156 -78.30078,78.30078 -2.39844,-40 c -0.5,-8.1 -6.9,-14.5 -15,-15 l -40,-2.40234 64,-64 z m 207.19922,0.40234 63.59766,63.59766 -40,2.40234 c -8.1,0.5 -14.5,6.9 -15,15 l -2.39844,40 -78.19922,-78.20312 11.80078,-11.79688 c 22.3,-6.1 42.79922,-16.8 60.19922,-31 z"
     inkscape:connector-curvature="0" />
</svg>
