<?xml version="1.0" encoding="UTF-8" standalone="no"?>
<svg
   xmlns:dc="http://purl.org/dc/elements/1.1/"
   xmlns:cc="http://creativecommons.org/ns#"
   xmlns:rdf="http://www.w3.org/1999/02/22-rdf-syntax-ns#"
   xmlns:svg="http://www.w3.org/2000/svg"
   xmlns="http://www.w3.org/2000/svg"
   width="431"
   id="svg4874"
   version="1.1"
   viewBox="0 0 431 862.09998"
   height="431.04999"
   class="icon">
  <metadata
     id="metadata4882">
    <rdf:RDF>
      <cc:Work
         rdf:about="">
        <dc:format>image/svg+xml</dc:format>
        <dc:type
           rdf:resource="http://purl.org/dc/dcmitype/StillImage" />
        <dc:title></dc:title>
      </cc:Work>
    </rdf:RDF>
  </metadata>
  <defs
     id="defs4880" />
  <path
     style="fill:#ffffff"
     id="path4876"
     d="M 453.7,344.6 367.9,332.3 217.6,482.5 132.9,517.1 167.5,432.4 317.7,282.2 305.4,196.4 501.8,0 520.3,129.7 650,148.3 453.7,344.6 Z m -82.9,103.6 c 1.9,11.3 3.5,22.7 3.5,34.5 0,114.3 -92.6,206.9 -206.9,206.9 -114.3,0 -206.9,-92.6 -206.9,-206.9 0,-114.3 92.6,-206.9 206.9,-206.9 11.8,0 23.2,1.6 34.5,3.5 l 0,70.4 c -11.1,-2.9 -22.5,-4.9 -34.5,-4.9 -76.2,0 -137.9,61.8 -137.9,137.9 0,76.2 61.8,137.9 137.9,137.9 76.2,0 138,-61.8 138,-137.9 0,-12 -2,-23.4 -4.9,-34.5 l 70.3,0 z M -143,482.7 c 0,171.4 139,310.4 310.4,310.4 171.4,0 310.4,-139 310.4,-310.4 0,-23.7 -2.9,-46.8 -8,-69 l 70.4,0 c 4.1,22.4 6.6,45.4 6.6,69 C 546.8,692.2 377,862.1 167.4,862.1 -42.1,862 -212,692.2 -212,482.7 c 0,-209.5 169.8,-379.4 379.4,-379.4 23.6,0 46.6,2.4 69,6.6 l 0,70.4 c -22.2,-5 -45.2,-8 -69,-8 -171.5,0 -310.4,138.9 -310.4,310.4 z" />
</svg>
